{
  "asset": {
    "version": "2.0",
    "generator": "Evolve tools/bestiaire/construire.py"
  },
  "scene": 0,
  "scenes": [
    {
      "nodes": [
        0
      ]
    }
  ],
  "nodes": [
    {
      "name": "brute",
      "mesh": 0,
      "skin": 0,
      "children": [
        1
      ]
    },
    {
      "name": "racine",
      "translation": [
        0.0,
        -1.4112118308337984,
        0.10726055153394641
      ],
      "children": [
        2,
        3,
        4,
        5,
        6,
        7
      ]
    },
    {
      "name": "jambeD",
      "translation": [
        -0.253125,
        0.7875000000000001,
        0.0
      ]
    },
    {
      "name": "jambeG",
      "translation": [
        0.253125,
        0.7875000000000001,
        0.0
      ]
    },
    {
      "name": "tete",
      "translation": [
        0.0,
        2.0250000000000004,
        0.22499999999999998
      ]
    },
    {
      "name": "brasD",
      "translation": [
        -0.675,
        1.8562500000000002,
        0.1125
      ],
      "rotation": [
        -0.08694343573875718,
        -0.006079677280626755,
        -0.06949102930147368,
        0.9937680178757645
      ]
    },
    {
      "name": "brasG",
      "translation": [
        0.675,
        1.8562500000000002,
        0.1125
      ],
      "rotation": [
        -0.08694343573875718,
        0.006079677280626755,
        0.06949102930147368,
        0.9937680178757645
      ]
    },
    {
      "name": "queue",
      "translation": [
        0.0,
        1.0125000000000002,
        -0.225
      ],
      "rotation": [
        0.3826834323650898,
        0.0,
        0.0,
        0.9238795325112867
      ]
    }
  ],
  "meshes": [
    {
      "name": "brute",
      "primitives": [
        {
          "attributes": {
            "POSITION": 0,
            "NORMAL": 1,
            "TEXCOORD_0": 2,
            "JOINTS_0": 3,
            "WEIGHTS_0": 4
          },
          "indices": 5,
          "mode": 4
        }
      ]
    }
  ],
  "skins": [
    {
      "name": "squelette",
      "joints": [
        1,
        2,
        3,
        4,
        5,
        6,
        7
      ],
      "inverseBindMatrices": 6
    }
  ],
  "accessors": [
    {
      "bufferView": 0,
      "componentType": 5126,
      "count": 432,
      "type": "VEC3",
      "min": [
        -1.0778655148339378,
        -1.4112118308337984,
        -0.7541355515339466
      ],
      "max": [
        1.077865514833938,
        1.4112118308337984,
        0.7541355515339464
      ]
    },
    {
      "bufferView": 1,
      "componentType": 5126,
      "count": 432,
      "type": "VEC3"
    },
    {
      "bufferView": 2,
      "componentType": 5126,
      "count": 432,
      "type": "VEC2"
    },
    {
      "bufferView": 3,
      "componentType": 5123,
      "count": 432,
      "type": "VEC4"
    },
    {
      "bufferView": 4,
      "componentType": 5126,
      "count": 432,
      "type": "VEC4"
    },
    {
      "bufferView": 5,
      "componentType": 5123,
      "count": 648,
      "type": "SCALAR"
    },
    {
      "bufferView": 6,
      "componentType": 5126,
      "count": 7,
      "type": "MAT4"
    },
    {
      "bufferView": 7,
      "componentType": 5126,
      "count": 145,
      "type": "SCALAR",
      "min": [
        0.0
      ],
      "max": [
        11.11111111111111
      ]
    },
    {
      "bufferView": 8,
      "componentType": 5126,
      "count": 145,
      "type": "VEC4"
    },
    {
      "bufferView": 9,
      "componentType": 5126,
      "count": 145,
      "type": "VEC4"
    },
    {
      "bufferView": 10,
      "componentType": 5126,
      "count": 145,
      "type": "VEC4"
    },
    {
      "bufferView": 11,
      "componentType": 5126,
      "count": 145,
      "type": "VEC4"
    },
    {
      "bufferView": 12,
      "componentType": 5126,
      "count": 145,
      "type": "VEC4"
    },
    {
      "bufferView": 13,
      "componentType": 5126,
      "count": 145,
      "type": "VEC4"
    }
  ],
  "bufferViews": [
    {
      "buffer": 0,
      "byteOffset": 0,
      "byteLength": 5184
    },
    {
      "buffer": 0,
      "byteOffset": 5184,
      "byteLength": 5184
    },
    {
      "buffer": 0,
      "byteOffset": 10368,
      "byteLength": 3456
    },
    {
      "buffer": 0,
      "byteOffset": 13824,
      "byteLength": 3456
    },
    {
      "buffer": 0,
      "byteOffset": 17280,
      "byteLength": 6912
    },
    {
      "buffer": 0,
      "byteOffset": 24192,
      "byteLength": 1296
    },
    {
      "buffer": 0,
      "byteOffset": 25488,
      "byteLength": 448
    },
    {
      "buffer": 0,
      "byteOffset": 25936,
      "byteLength": 580
    },
    {
      "buffer": 0,
      "byteOffset": 26516,
      "byteLength": 2320
    },
    {
      "buffer": 0,
      "byteOffset": 28836,
      "byteLength": 2320
    },
    {
      "buffer": 0,
      "byteOffset": 31156,
      "byteLength": 2320
    },
    {
      "buffer": 0,
      "byteOffset": 33476,
      "byteLength": 2320
    },
    {
      "buffer": 0,
      "byteOffset": 35796,
      "byteLength": 2320
    },
    {
      "buffer": 0,
      "byteOffset": 38116,
      "byteLength": 2320
    }
  ],
  "buffers": [
    {
      "byteLength": 40436,
      "uri": "data:application/octet-stream;base64,"
    }
  ],
  "animations": [
    {
      "name": "repos",
      "samplers": [
        {
          "input": 7,
          "interpolation": "LINEAR",
          "output": 8
        },
        {
          "input": 7,
          "interpolation": "LINEAR",
          "output": 9
        },
        {
          "input": 7,
          "interpolation": "LINEAR",
          "output": 10
        },
        {
          "input": 7,
          "interpolation": "LINEAR",
          "output": 11
        },
        {
          "input": 7,
          "interpolation": "LINEAR",
          "output": 12
        },
        {
          "input": 7,
          "interpolation": "LINEAR",
          "output": 13
        }
      ],
      "channels": [
        {
          "sampler": 0,
          "target": {
            "node": 2,
            "path": "rotation"
          }
        },
        {
          "sampler": 1,
          "target": {
            "node": 3,
            "path": "rotation"
          }
        },
        {
          "sampler": 2,
          "target": {
            "node": 4,
            "path": "rotation"
          }
        },
        {
          "sampler": 3,
          "target": {
            "node": 5,
            "path": "rotation"
          }
        },
        {
          "sampler": 4,
          "target": {
            "node": 6,
            "path": "rotation"
          }
        },
        {
          "sampler": 5,
          "target": {
            "node": 7,
            "path": "rotation"
          }
        }
      ]
    }
  ]
}