{
  "asset": {
    "version": "2.0",
    "generator": "Evolve tools/bestiaire/construire.py"
  },
  "scene": 0,
  "scenes": [
    {
      "nodes": [
        0
      ]
    }
  ],
  "nodes": [
    {
      "name": "cerfCristal",
      "mesh": 0,
      "skin": 0,
      "children": [
        1
      ]
    },
    {
      "name": "racine",
      "translation": [
        0.0,
        -1.218032135250368,
        -0.24771537043020944
      ],
      "children": [
        2,
        3,
        4,
        5,
        6,
        7
      ]
    },
    {
      "name": "patteAVD",
      "translation": [
        -0.140625,
        0.6749999999999999,
        0.28125
      ]
    },
    {
      "name": "patteAVG",
      "translation": [
        0.140625,
        0.6749999999999999,
        0.28125
      ]
    },
    {
      "name": "patteARD",
      "translation": [
        -0.140625,
        0.6749999999999999,
        -0.28125
      ]
    },
    {
      "name": "patteARG",
      "translation": [
        0.140625,
        0.6749999999999999,
        -0.28125
      ]
    },
    {
      "name": "tete",
      "translation": [
        0.0,
        1.471318317187304,
        0.5514504950062291
      ]
    },
    {
      "name": "queue",
      "translation": [
        0.0,
        1.0687499999999999,
        -0.421875
      ],
      "rotation": [
        0.17364817766693036,
        0.0,
        0.0,
        0.984807753012208
      ]
    }
  ],
  "meshes": [
    {
      "name": "cerfCristal",
      "primitives": [
        {
          "attributes": {
            "POSITION": 0,
            "NORMAL": 1,
            "TEXCOORD_0": 2,
            "JOINTS_0": 3,
            "WEIGHTS_0": 4
          },
          "indices": 5,
          "mode": 4
        }
      ]
    }
  ],
  "skins": [
    {
      "name": "squelette",
      "joints": [
        1,
        2,
        3,
        4,
        5,
        6,
        7
      ],
      "inverseBindMatrices": 6
    }
  ],
  "accessors": [
    {
      "bufferView": 0,
      "componentType": 5126,
      "count": 720,
      "type": "VEC3",
      "min": [
        -0.6527326654202764,
        -1.218032135250368,
        -0.7537351245760199
      ],
      "max": [
        0.6527326654202763,
        1.218032135250368,
        0.7537351245760198
      ]
    },
    {
      "bufferView": 1,
      "componentType": 5126,
      "count": 720,
      "type": "VEC3"
    },
    {
      "bufferView": 2,
      "componentType": 5126,
      "count": 720,
      "type": "VEC2"
    },
    {
      "bufferView": 3,
      "componentType": 5123,
      "count": 720,
      "type": "VEC4"
    },
    {
      "bufferView": 4,
      "componentType": 5126,
      "count": 720,
      "type": "VEC4"
    },
    {
      "bufferView": 5,
      "componentType": 5123,
      "count": 1080,
      "type": "SCALAR"
    },
    {
      "bufferView": 6,
      "componentType": 5126,
      "count": 7,
      "type": "MAT4"
    },
    {
      "bufferView": 7,
      "componentType": 5126,
      "count": 97,
      "type": "SCALAR",
      "min": [
        0.0
      ],
      "max": [
        5.5555555555555545
      ]
    },
    {
      "bufferView": 8,
      "componentType": 5126,
      "count": 97,
      "type": "VEC4"
    },
    {
      "bufferView": 9,
      "componentType": 5126,
      "count": 97,
      "type": "VEC4"
    },
    {
      "bufferView": 10,
      "componentType": 5126,
      "count": 97,
      "type": "VEC4"
    },
    {
      "bufferView": 11,
      "componentType": 5126,
      "count": 97,
      "type": "VEC4"
    },
    {
      "bufferView": 12,
      "componentType": 5126,
      "count": 97,
      "type": "VEC4"
    },
    {
      "bufferView": 13,
      "componentType": 5126,
      "count": 97,
      "type": "VEC4"
    }
  ],
  "bufferViews": [
    {
      "buffer": 0,
      "byteOffset": 0,
      "byteLength": 8640
    },
    {
      "buffer": 0,
      "byteOffset": 8640,
      "byteLength": 8640
    },
    {
      "buffer": 0,
      "byteOffset": 17280,
      "byteLength": 5760
    },
    {
      "buffer": 0,
      "byteOffset": 23040,
      "byteLength": 5760
    },
    {
      "buffer": 0,
      "byteOffset": 28800,
      "byteLength": 11520
    },
    {
      "buffer": 0,
      "byteOffset": 40320,
      "byteLength": 2160
    },
    {
      "buffer": 0,
      "byteOffset": 42480,
      "byteLength": 448
    },
    {
      "buffer": 0,
      "byteOffset": 42928,
      "byteLength": 388
    },
    {
      "buffer": 0,
      "byteOffset": 43316,
      "byteLength": 1552
    },
    {
      "buffer": 0,
      "byteOffset": 44868,
      "byteLength": 1552
    },
    {
      "buffer": 0,
      "byteOffset": 46420,
      "byteLength": 1552
    },
    {
      "buffer": 0,
      "byteOffset": 47972,
      "byteLength": 1552
    },
    {
      "buffer": 0,
      "byteOffset": 49524,
      "byteLength": 1552
    },
    {
      "buffer": 0,
      "byteOffset": 51076,
      "byteLength": 1552
    }
  ],
  "buffers": [
    {
      "byteLength": 52628,
      "uri": "data:application/octet-stream;base64,"
    }
  ],
  "animations": [
    {
      "name": "repos",
      "samplers": [
        {
          "input": 7,
          "interpolation": "LINEAR",
          "output": 8
        },
        {
          "input": 7,
          "interpolation": "LINEAR",
          "output": 9
        },
        {
          "input": 7,
          "interpolation": "LINEAR",
          "output": 10
        },
        {
          "input": 7,
          "interpolation": "LINEAR",
          "output": 11
        },
        {
          "input": 7,
          "interpolation": "LINEAR",
          "output": 12
        },
        {
          "input": 7,
          "interpolation": "LINEAR",
          "output": 13
        }
      ],
      "channels": [
        {
          "sampler": 0,
          "target": {
            "node": 2,
            "path": "rotation"
          }
        },
        {
          "sampler": 1,
          "target": {
            "node": 3,
            "path": "rotation"
          }
        },
        {
          "sampler": 2,
          "target": {
            "node": 4,
            "path": "rotation"
          }
        },
        {
          "sampler": 3,
          "target": {
            "node": 5,
            "path": "rotation"
          }
        },
        {
          "sampler": 4,
          "target": {
            "node": 6,
            "path": "rotation"
          }
        },
        {
          "sampler": 5,
          "target": {
            "node": 7,
            "path": "rotation"
          }
        }
      ]
    }
  ]
}