{
  "asset": {
    "version": "2.0",
    "generator": "Evolve tools/bestiaire/construire.py"
  },
  "scene": 0,
  "scenes": [
    {
      "nodes": [
        0
      ]
    }
  ],
  "nodes": [
    {
      "name": "champion",
      "mesh": 0,
      "skin": 0,
      "children": [
        1
      ]
    },
    {
      "name": "racine",
      "translation": [
        0.0,
        -2.1168779841842977,
        -0.4257792102069163
      ],
      "children": [
        2,
        3,
        4,
        5,
        6,
        7,
        8,
        15
      ]
    },
    {
      "name": "cuisse-1",
      "translation": [
        -0.3375,
        1.63125,
        0.0
      ],
      "rotation": [
        -0.13052619222005157,
        0.0,
        0.0,
        0.9914448613738104
      ]
    },
    {
      "name": "aile-1",
      "translation": [
        -0.3375,
        2.9250000000000003,
        -0.309375
      ],
      "rotation": [
        0.0375843445352855,
        -0.16953202249987687,
        -0.2131514098652129,
        0.9614638770465722
      ]
    },
    {
      "name": "cuisse1",
      "translation": [
        0.3375,
        1.63125,
        0.0
      ],
      "rotation": [
        -0.13052619222005157,
        0.0,
        0.0,
        0.9914448613738104
      ]
    },
    {
      "name": "aile1",
      "translation": [
        0.3375,
        2.9250000000000003,
        -0.309375
      ],
      "rotation": [
        0.0375843445352855,
        0.16953202249987687,
        0.2131514098652129,
        0.9614638770465722
      ]
    },
    {
      "name": "tete",
      "translation": [
        0.0,
        3.1500000000000004,
        0.225
      ]
    },
    {
      "name": "brasD",
      "translation": [
        -0.815625,
        2.98125,
        0.05625000000000002
      ],
      "rotation": [
        -0.17298739392508947,
        -0.015134435901338622,
        -0.08583165117743129,
        0.9810602621904069
      ]
    },
    {
      "name": "brasG",
      "translation": [
        0.815625,
        2.98125,
        0.05625000000000002
      ],
      "rotation": [
        -0.08682408883346515,
        0.007596123493895969,
        0.08682408883346515,
        0.9924038765061041
      ],
      "children": [
        9
      ]
    },
    {
      "name": "fouet0",
      "translation": [
        5.377642775528102e-17,
        -1.5187499999999998,
        -5.551115123125783e-17
      ],
      "children": [
        10
      ]
    },
    {
      "name": "fouet1",
      "translation": [
        -1.1839487723541708e-16,
        -0.39375,
        1.3877787807814457e-17
      ],
      "rotation": [
        -0.08715574274765817,
        -2.6120247567565042e-18,
        1.5236811081079608e-18,
        0.9961946980917454
      ],
      "children": [
        11
      ]
    },
    {
      "name": "fouet2",
      "translation": [
        -1.196959198423997e-16,
        -0.39374999999999977,
        0.0
      ],
      "rotation": [
        -0.08715574274765818,
        -1.7413498378376697e-18,
        -3.9180371351347565e-18,
        0.9961946980917454
      ],
      "children": [
        12
      ]
    },
    {
      "name": "fouet3",
      "translation": [
        3.9898639947466563e-17,
        -0.3937499999999999,
        2.7755575615628914e-17
      ],
      "rotation": [
        -0.08715574274765811,
        -4.3533745945941735e-18,
        -2.6120247567565042e-18,
        0.9961946980917454
      ],
      "children": [
        13
      ]
    },
    {
      "name": "fouet4",
      "translation": [
        1.249000902703301e-16,
        -0.3937499999999997,
        0.0
      ],
      "rotation": [
        -0.08715574274765815,
        0.0,
        -1.7413498378376697e-18,
        0.9961946980917454
      ],
      "children": [
        14
      ]
    },
    {
      "name": "fouet5",
      "translation": [
        -7.112366251504909e-17,
        -0.3937499999999997,
        -8.326672684688674e-17
      ],
      "rotation": [
        -0.08715574274765814,
        7.836074270269513e-18,
        2.6120247567565042e-18,
        0.9961946980917454
      ]
    },
    {
      "name": "queue",
      "translation": [
        0.0,
        1.8,
        -0.28125000000000006
      ],
      "rotation": [
        0.3826834323650898,
        0.0,
        0.0,
        0.9238795325112867
      ]
    }
  ],
  "meshes": [
    {
      "name": "champion",
      "primitives": [
        {
          "attributes": {
            "POSITION": 0,
            "NORMAL": 1,
            "TEXCOORD_0": 2,
            "JOINTS_0": 3,
            "WEIGHTS_0": 4
          },
          "indices": 5,
          "mode": 4
        }
      ]
    }
  ],
  "skins": [
    {
      "name": "squelette",
      "joints": [
        1,
        2,
        3,
        4,
        5,
        6,
        7,
        8,
        9,
        10,
        11,
        12,
        13,
        14,
        15
      ],
      "inverseBindMatrices": 6
    }
  ],
  "accessors": [
    {
      "bufferView": 0,
      "componentType": 5126,
      "count": 960,
      "type": "VEC3",
      "min": [
        -2.1032190062898226,
        -2.45716872157713,
        -1.793425313274809
      ],
      "max": [
        2.1032190062898226,
        2.1168779841842977,
        1.7934253132748095
      ]
    },
    {
      "bufferView": 1,
      "componentType": 5126,
      "count": 960,
      "type": "VEC3"
    },
    {
      "bufferView": 2,
      "componentType": 5126,
      "count": 960,
      "type": "VEC2"
    },
    {
      "bufferView": 3,
      "componentType": 5123,
      "count": 960,
      "type": "VEC4"
    },
    {
      "bufferView": 4,
      "componentType": 5126,
      "count": 960,
      "type": "VEC4"
    },
    {
      "bufferView": 5,
      "componentType": 5123,
      "count": 1440,
      "type": "SCALAR"
    },
    {
      "bufferView": 6,
      "componentType": 5126,
      "count": 15,
      "type": "MAT4"
    },
    {
      "bufferView": 7,
      "componentType": 5126,
      "count": 257,
      "type": "SCALAR",
      "min": [
        0.0
      ],
      "max": [
        22.22222222222222
      ]
    },
    {
      "bufferView": 8,
      "componentType": 5126,
      "count": 257,
      "type": "VEC4"
    },
    {
      "bufferView": 9,
      "componentType": 5126,
      "count": 257,
      "type": "VEC4"
    },
    {
      "bufferView": 10,
      "componentType": 5126,
      "count": 257,
      "type": "VEC4"
    },
    {
      "bufferView": 11,
      "componentType": 5126,
      "count": 257,
      "type": "VEC4"
    },
    {
      "bufferView": 12,
      "componentType": 5126,
      "count": 257,
      "type": "VEC4"
    },
    {
      "bufferView": 13,
      "componentType": 5126,
      "count": 257,
      "type": "VEC4"
    },
    {
      "bufferView": 14,
      "componentType": 5126,
      "count": 257,
      "type": "VEC4"
    },
    {
      "bufferView": 15,
      "componentType": 5126,
      "count": 257,
      "type": "VEC4"
    },
    {
      "bufferView": 16,
      "componentType": 5126,
      "count": 257,
      "type": "VEC4"
    },
    {
      "bufferView": 17,
      "componentType": 5126,
      "count": 257,
      "type": "VEC4"
    },
    {
      "bufferView": 18,
      "componentType": 5126,
      "count": 257,
      "type": "VEC4"
    },
    {
      "bufferView": 19,
      "componentType": 5126,
      "count": 257,
      "type": "VEC4"
    },
    {
      "bufferView": 20,
      "componentType": 5126,
      "count": 257,
      "type": "VEC4"
    },
    {
      "bufferView": 21,
      "componentType": 5126,
      "count": 257,
      "type": "VEC4"
    }
  ],
  "bufferViews": [
    {
      "buffer": 0,
      "byteOffset": 0,
      "byteLength": 11520
    },
    {
      "buffer": 0,
      "byteOffset": 11520,
      "byteLength": 11520
    },
    {
      "buffer": 0,
      "byteOffset": 23040,
      "byteLength": 7680
    },
    {
      "buffer": 0,
      "byteOffset": 30720,
      "byteLength": 7680
    },
    {
      "buffer": 0,
      "byteOffset": 38400,
      "byteLength": 15360
    },
    {
      "buffer": 0,
      "byteOffset": 53760,
      "byteLength": 2880
    },
    {
      "buffer": 0,
      "byteOffset": 56640,
      "byteLength": 960
    },
    {
      "buffer": 0,
      "byteOffset": 57600,
      "byteLength": 1028
    },
    {
      "buffer": 0,
      "byteOffset": 58628,
      "byteLength": 4112
    },
    {
      "buffer": 0,
      "byteOffset": 62740,
      "byteLength": 4112
    },
    {
      "buffer": 0,
      "byteOffset": 66852,
      "byteLength": 4112
    },
    {
      "buffer": 0,
      "byteOffset": 70964,
      "byteLength": 4112
    },
    {
      "buffer": 0,
      "byteOffset": 75076,
      "byteLength": 4112
    },
    {
      "buffer": 0,
      "byteOffset": 79188,
      "byteLength": 4112
    },
    {
      "buffer": 0,
      "byteOffset": 83300,
      "byteLength": 4112
    },
    {
      "buffer": 0,
      "byteOffset": 87412,
      "byteLength": 4112
    },
    {
      "buffer": 0,
      "byteOffset": 91524,
      "byteLength": 4112
    },
    {
      "buffer": 0,
      "byteOffset": 95636,
      "byteLength": 4112
    },
    {
      "buffer": 0,
      "byteOffset": 99748,
      "byteLength": 4112
    },
    {
      "buffer": 0,
      "byteOffset": 103860,
      "byteLength": 4112
    },
    {
      "buffer": 0,
      "byteOffset": 107972,
      "byteLength": 4112
    },
    {
      "buffer": 0,
      "byteOffset": 112084,
      "byteLength": 4112
    }
  ],
  "buffers": [
    {
      "byteLength": 116196,
      "uri": "data:application/octet-stream;base64,"
    }
  ],
  "animations": [
    {
      "name": "repos",
      "samplers": [
        {
          "input": 7,
          "interpolation": "LINEAR",
          "output": 8
        },
        {
          "input": 7,
          "interpolation": "LINEAR",
          "output": 9
        },
        {
          "input": 7,
          "interpolation": "LINEAR",
          "output": 10
        },
        {
          "input": 7,
          "interpolation": "LINEAR",
          "output": 11
        },
        {
          "input": 7,
          "interpolation": "LINEAR",
          "output": 12
        },
        {
          "input": 7,
          "interpolation": "LINEAR",
          "output": 13
        },
        {
          "input": 7,
          "interpolation": "LINEAR",
          "output": 14
        },
        {
          "input": 7,
          "interpolation": "LINEAR",
          "output": 15
        },
        {
          "input": 7,
          "interpolation": "LINEAR",
          "output": 16
        },
        {
          "input": 7,
          "interpolation": "LINEAR",
          "output": 17
        },
        {
          "input": 7,
          "interpolation": "LINEAR",
          "output": 18
        },
        {
          "input": 7,
          "interpolation": "LINEAR",
          "output": 19
        },
        {
          "input": 7,
          "interpolation": "LINEAR",
          "output": 20
        },
        {
          "input": 7,
          "interpolation": "LINEAR",
          "output": 21
        }
      ],
      "channels": [
        {
          "sampler": 0,
          "target": {
            "node": 2,
            "path": "rotation"
          }
        },
        {
          "sampler": 1,
          "target": {
            "node": 3,
            "path": "rotation"
          }
        },
        {
          "sampler": 2,
          "target": {
            "node": 4,
            "path": "rotation"
          }
        },
        {
          "sampler": 3,
          "target": {
            "node": 5,
            "path": "rotation"
          }
        },
        {
          "sampler": 4,
          "target": {
            "node": 6,
            "path": "rotation"
          }
        },
        {
          "sampler": 5,
          "target": {
            "node": 7,
            "path": "rotation"
          }
        },
        {
          "sampler": 6,
          "target": {
            "node": 8,
            "path": "rotation"
          }
        },
        {
          "sampler": 7,
          "target": {
            "node": 9,
            "path": "rotation"
          }
        },
        {
          "sampler": 8,
          "target": {
            "node": 10,
            "path": "rotation"
          }
        },
        {
          "sampler": 9,
          "target": {
            "node": 11,
            "path": "rotation"
          }
        },
        {
          "sampler": 10,
          "target": {
            "node": 12,
            "path": "rotation"
          }
        },
        {
          "sampler": 11,
          "target": {
            "node": 13,
            "path": "rotation"
          }
        },
        {
          "sampler": 12,
          "target": {
            "node": 14,
            "path": "rotation"
          }
        },
        {
          "sampler": 13,
          "target": {
            "node": 15,
            "path": "rotation"
          }
        }
      ]
    }
  ]
}