{
  "asset": {
    "version": "2.0",
    "generator": "Evolve tools/bestiaire/construire.py"
  },
  "scene": 0,
  "scenes": [
    {
      "nodes": [
        0
      ]
    }
  ],
  "nodes": [
    {
      "name": "chien",
      "mesh": 0,
      "skin": 0,
      "children": [
        1
      ]
    },
    {
      "name": "racine",
      "translation": [
        0.0,
        -0.6944140159490652,
        0.07707321722156006
      ],
      "children": [
        2,
        3,
        4,
        5,
        6,
        7
      ]
    },
    {
      "name": "patteAVD",
      "translation": [
        -0.140625,
        0.5625,
        0.28125
      ]
    },
    {
      "name": "patteAVG",
      "translation": [
        0.140625,
        0.5625,
        0.28125
      ]
    },
    {
      "name": "patteARD",
      "translation": [
        -0.140625,
        0.5625,
        -0.36562500000000003
      ]
    },
    {
      "name": "patteARG",
      "translation": [
        0.140625,
        0.5625,
        -0.36562500000000003
      ]
    },
    {
      "name": "tete",
      "translation": [
        0.0,
        0.95625,
        0.47812499999999997
      ]
    },
    {
      "name": "queue",
      "translation": [
        0.0,
        0.9,
        -0.478125
      ],
      "rotation": [
        0.5,
        0.0,
        0.0,
        0.8660254037844386
      ]
    }
  ],
  "meshes": [
    {
      "name": "chien",
      "primitives": [
        {
          "attributes": {
            "POSITION": 0,
            "NORMAL": 1,
            "TEXCOORD_0": 2,
            "JOINTS_0": 3,
            "WEIGHTS_0": 4
          },
          "indices": 5,
          "mode": 4
        }
      ]
    }
  ],
  "skins": [
    {
      "name": "squelette",
      "joints": [
        1,
        2,
        3,
        4,
        5,
        6,
        7
      ],
      "inverseBindMatrices": 6
    }
  ],
  "accessors": [
    {
      "bufferView": 0,
      "componentType": 5126,
      "count": 432,
      "type": "VEC3",
      "min": [
        -0.29410322602609257,
        -0.6944140159490652,
        -1.17394821722156
      ],
      "max": [
        0.2941032260260926,
        0.6944140159490652,
        1.17394821722156
      ]
    },
    {
      "bufferView": 1,
      "componentType": 5126,
      "count": 432,
      "type": "VEC3"
    },
    {
      "bufferView": 2,
      "componentType": 5126,
      "count": 432,
      "type": "VEC2"
    },
    {
      "bufferView": 3,
      "componentType": 5123,
      "count": 432,
      "type": "VEC4"
    },
    {
      "bufferView": 4,
      "componentType": 5126,
      "count": 432,
      "type": "VEC4"
    },
    {
      "bufferView": 5,
      "componentType": 5123,
      "count": 648,
      "type": "SCALAR"
    },
    {
      "bufferView": 6,
      "componentType": 5126,
      "count": 7,
      "type": "MAT4"
    },
    {
      "bufferView": 7,
      "componentType": 5126,
      "count": 97,
      "type": "SCALAR",
      "min": [
        0.0
      ],
      "max": [
        5.5555555555555545
      ]
    },
    {
      "bufferView": 8,
      "componentType": 5126,
      "count": 97,
      "type": "VEC4"
    },
    {
      "bufferView": 9,
      "componentType": 5126,
      "count": 97,
      "type": "VEC4"
    },
    {
      "bufferView": 10,
      "componentType": 5126,
      "count": 97,
      "type": "VEC4"
    },
    {
      "bufferView": 11,
      "componentType": 5126,
      "count": 97,
      "type": "VEC4"
    },
    {
      "bufferView": 12,
      "componentType": 5126,
      "count": 97,
      "type": "VEC4"
    },
    {
      "bufferView": 13,
      "componentType": 5126,
      "count": 97,
      "type": "VEC4"
    }
  ],
  "bufferViews": [
    {
      "buffer": 0,
      "byteOffset": 0,
      "byteLength": 5184
    },
    {
      "buffer": 0,
      "byteOffset": 5184,
      "byteLength": 5184
    },
    {
      "buffer": 0,
      "byteOffset": 10368,
      "byteLength": 3456
    },
    {
      "buffer": 0,
      "byteOffset": 13824,
      "byteLength": 3456
    },
    {
      "buffer": 0,
      "byteOffset": 17280,
      "byteLength": 6912
    },
    {
      "buffer": 0,
      "byteOffset": 24192,
      "byteLength": 1296
    },
    {
      "buffer": 0,
      "byteOffset": 25488,
      "byteLength": 448
    },
    {
      "buffer": 0,
      "byteOffset": 25936,
      "byteLength": 388
    },
    {
      "buffer": 0,
      "byteOffset": 26324,
      "byteLength": 1552
    },
    {
      "buffer": 0,
      "byteOffset": 27876,
      "byteLength": 1552
    },
    {
      "buffer": 0,
      "byteOffset": 29428,
      "byteLength": 1552
    },
    {
      "buffer": 0,
      "byteOffset": 30980,
      "byteLength": 1552
    },
    {
      "buffer": 0,
      "byteOffset": 32532,
      "byteLength": 1552
    },
    {
      "buffer": 0,
      "byteOffset": 34084,
      "byteLength": 1552
    }
  ],
  "buffers": [
    {
      "byteLength": 35636,
      "uri": "data:application/octet-stream;base64,"
    }
  ],
  "animations": [
    {
      "name": "repos",
      "samplers": [
        {
          "input": 7,
          "interpolation": "LINEAR",
          "output": 8
        },
        {
          "input": 7,
          "interpolation": "LINEAR",
          "output": 9
        },
        {
          "input": 7,
          "interpolation": "LINEAR",
          "output": 10
        },
        {
          "input": 7,
          "interpolation": "LINEAR",
          "output": 11
        },
        {
          "input": 7,
          "interpolation": "LINEAR",
          "output": 12
        },
        {
          "input": 7,
          "interpolation": "LINEAR",
          "output": 13
        }
      ],
      "channels": [
        {
          "sampler": 0,
          "target": {
            "node": 2,
            "path": "rotation"
          }
        },
        {
          "sampler": 1,
          "target": {
            "node": 3,
            "path": "rotation"
          }
        },
        {
          "sampler": 2,
          "target": {
            "node": 4,
            "path": "rotation"
          }
        },
        {
          "sampler": 3,
          "target": {
            "node": 5,
            "path": "rotation"
          }
        },
        {
          "sampler": 4,
          "target": {
            "node": 6,
            "path": "rotation"
          }
        },
        {
          "sampler": 5,
          "target": {
            "node": 7,
            "path": "rotation"
          }
        }
      ]
    }
  ]
}