{
  "asset": {
    "version": "2.0",
    "generator": "Evolve tools/bestiaire/construire.py"
  },
  "scene": 0,
  "scenes": [
    {
      "nodes": [
        0
      ]
    }
  ],
  "nodes": [
    {
      "name": "faisan",
      "mesh": 0,
      "skin": 0,
      "children": [
        1
      ]
    },
    {
      "name": "racine",
      "translation": [
        0.0,
        -0.4592708193219002,
        0.1854258445228231
      ],
      "children": [
        2,
        3,
        4,
        5
      ]
    },
    {
      "name": "patteD",
      "translation": [
        -0.05625,
        0.225,
        0.02812500000000001
      ]
    },
    {
      "name": "patteG",
      "translation": [
        0.05625,
        0.225,
        0.02812500000000001
      ]
    },
    {
      "name": "cou",
      "translation": [
        0.0,
        0.478125,
        0.16875000000000004
      ],
      "rotation": [
        0.13052619222005157,
        0.0,
        0.0,
        0.9914448613738104
      ]
    },
    {
      "name": "queue",
      "translation": [
        0.0,
        0.45,
        -0.196875
      ],
      "rotation": [
        0.17364817766693036,
        0.0,
        0.0,
        0.984807753012208
      ]
    }
  ],
  "meshes": [
    {
      "name": "faisan",
      "primitives": [
        {
          "attributes": {
            "POSITION": 0,
            "NORMAL": 1,
            "TEXCOORD_0": 2,
            "JOINTS_0": 3,
            "WEIGHTS_0": 4
          },
          "indices": 5,
          "mode": 4
        }
      ]
    }
  ],
  "skins": [
    {
      "name": "squelette",
      "joints": [
        1,
        2,
        3,
        4,
        5
      ],
      "inverseBindMatrices": 6
    }
  ],
  "accessors": [
    {
      "bufferView": 0,
      "componentType": 5126,
      "count": 216,
      "type": "VEC3",
      "min": [
        -0.196875,
        -0.4592708193219002,
        -0.7082187009579071
      ],
      "max": [
        0.196875,
        0.4592708193219002,
        0.7082187009579071
      ]
    },
    {
      "bufferView": 1,
      "componentType": 5126,
      "count": 216,
      "type": "VEC3"
    },
    {
      "bufferView": 2,
      "componentType": 5126,
      "count": 216,
      "type": "VEC2"
    },
    {
      "bufferView": 3,
      "componentType": 5123,
      "count": 216,
      "type": "VEC4"
    },
    {
      "bufferView": 4,
      "componentType": 5126,
      "count": 216,
      "type": "VEC4"
    },
    {
      "bufferView": 5,
      "componentType": 5123,
      "count": 324,
      "type": "SCALAR"
    },
    {
      "bufferView": 6,
      "componentType": 5126,
      "count": 5,
      "type": "MAT4"
    },
    {
      "bufferView": 7,
      "componentType": 5126,
      "count": 129,
      "type": "SCALAR",
      "min": [
        0.0
      ],
      "max": [
        5.555555555555555
      ]
    },
    {
      "bufferView": 8,
      "componentType": 5126,
      "count": 129,
      "type": "VEC4"
    },
    {
      "bufferView": 9,
      "componentType": 5126,
      "count": 129,
      "type": "VEC4"
    },
    {
      "bufferView": 10,
      "componentType": 5126,
      "count": 129,
      "type": "VEC4"
    },
    {
      "bufferView": 11,
      "componentType": 5126,
      "count": 129,
      "type": "VEC4"
    }
  ],
  "bufferViews": [
    {
      "buffer": 0,
      "byteOffset": 0,
      "byteLength": 2592
    },
    {
      "buffer": 0,
      "byteOffset": 2592,
      "byteLength": 2592
    },
    {
      "buffer": 0,
      "byteOffset": 5184,
      "byteLength": 1728
    },
    {
      "buffer": 0,
      "byteOffset": 6912,
      "byteLength": 1728
    },
    {
      "buffer": 0,
      "byteOffset": 8640,
      "byteLength": 3456
    },
    {
      "buffer": 0,
      "byteOffset": 12096,
      "byteLength": 648
    },
    {
      "buffer": 0,
      "byteOffset": 12744,
      "byteLength": 320
    },
    {
      "buffer": 0,
      "byteOffset": 13064,
      "byteLength": 516
    },
    {
      "buffer": 0,
      "byteOffset": 13580,
      "byteLength": 2064
    },
    {
      "buffer": 0,
      "byteOffset": 15644,
      "byteLength": 2064
    },
    {
      "buffer": 0,
      "byteOffset": 17708,
      "byteLength": 2064
    },
    {
      "buffer": 0,
      "byteOffset": 19772,
      "byteLength": 2064
    }
  ],
  "buffers": [
    {
      "byteLength": 21836,
      "uri": "data:application/octet-stream;base64,"
    }
  ],
  "animations": [
    {
      "name": "repos",
      "samplers": [
        {
          "input": 7,
          "interpolation": "LINEAR",
          "output": 8
        },
        {
          "input": 7,
          "interpolation": "LINEAR",
          "output": 9
        },
        {
          "input": 7,
          "interpolation": "LINEAR",
          "output": 10
        },
        {
          "input": 7,
          "interpolation": "LINEAR",
          "output": 11
        }
      ],
      "channels": [
        {
          "sampler": 0,
          "target": {
            "node": 2,
            "path": "rotation"
          }
        },
        {
          "sampler": 1,
          "target": {
            "node": 3,
            "path": "rotation"
          }
        },
        {
          "sampler": 2,
          "target": {
            "node": 4,
            "path": "rotation"
          }
        },
        {
          "sampler": 3,
          "target": {
            "node": 5,
            "path": "rotation"
          }
        }
      ]
    }
  ]
}