{
  "asset": {
    "version": "2.0",
    "generator": "Evolve tools/bestiaire/construire.py"
  },
  "scene": 0,
  "scenes": [
    {
      "nodes": [
        0
      ]
    }
  ],
  "nodes": [
    {
      "name": "gorgone",
      "mesh": 0,
      "skin": 0,
      "children": [
        1
      ]
    },
    {
      "name": "racine",
      "translation": [
        -0.05474082765973085,
        -1.1095207185878007,
        0.12261210532403358
      ],
      "children": [
        2,
        5,
        6,
        7
      ]
    },
    {
      "name": "queue1",
      "translation": [
        -0.16875,
        0.1406250000000001,
        -0.225
      ],
      "rotation": [
        0.0,
        -0.42261826174069944,
        0.0,
        0.9063077870366499
      ],
      "children": [
        3
      ]
    },
    {
      "name": "queue2",
      "translation": [
        5.551115123125783e-17,
        -0.028125000000000067,
        -0.45000000000000007
      ],
      "rotation": [
        0.0,
        -0.5,
        0.0,
        0.8660254037844386
      ],
      "children": [
        4
      ]
    },
    {
      "name": "queue3",
      "translation": [
        5.551115123125783e-17,
        -0.028124999999999956,
        -0.44999999999999996
      ],
      "rotation": [
        0.0,
        -0.5,
        0.0,
        0.8660254037844386
      ]
    },
    {
      "name": "brasD",
      "translation": [
        -0.309375,
        1.096875,
        0.056249999999999994
      ],
      "rotation": [
        -0.21561599586216237,
        -0.018863955312791742,
        -0.08508980364211075,
        0.9725809060610187
      ]
    },
    {
      "name": "brasG",
      "translation": [
        0.309375,
        1.096875,
        0.056249999999999994
      ],
      "rotation": [
        -0.21561599586216237,
        0.018863955312791742,
        0.08508980364211075,
        0.9725809060610187
      ]
    },
    {
      "name": "tete",
      "translation": [
        0.0,
        1.125,
        0.056249999999999994
      ],
      "children": [
        8,
        10,
        12,
        14
      ]
    },
    {
      "name": "liane0",
      "translation": [
        -0.140625,
        0.39375,
        -0.056249999999999994
      ],
      "rotation": [
        0.0,
        0.0,
        0.21643961393810288,
        0.9762960071199334
      ],
      "children": [
        9
      ]
    },
    {
      "name": "lianeB0",
      "translation": [
        -2.7755575615628914e-17,
        0.28124999999999994,
        0.0
      ],
      "rotation": [
        0.3007057995042731,
        0.0,
        0.0,
        0.9537169507482269
      ]
    },
    {
      "name": "liane1",
      "translation": [
        0.140625,
        0.39375,
        -0.056249999999999994
      ],
      "rotation": [
        0.0,
        0.0,
        -0.21643961393810288,
        0.9762960071199334
      ],
      "children": [
        11
      ]
    },
    {
      "name": "lianeB1",
      "translation": [
        2.7755575615628914e-17,
        0.28124999999999994,
        0.0
      ],
      "rotation": [
        0.3007057995042731,
        0.0,
        0.0,
        0.9537169507482269
      ]
    },
    {
      "name": "liane2",
      "translation": [
        -0.05625,
        0.39375,
        -0.140625
      ],
      "rotation": [
        -0.17322517943366061,
        0.012113084546138431,
        0.06869671616600713,
        0.9824088108221349
      ],
      "children": [
        13
      ]
    },
    {
      "name": "lianeB2",
      "translation": [
        -1.1275702593849246e-17,
        0.28124999999999994,
        -2.7755575615628914e-17
      ],
      "rotation": [
        0.3007057995042732,
        -5.456724265881563e-18,
        0.0,
        0.9537169507482269
      ]
    },
    {
      "name": "liane3",
      "translation": [
        0.05625,
        0.39375,
        -0.140625
      ],
      "rotation": [
        -0.17322517943366061,
        -0.012113084546138431,
        -0.06869671616600713,
        0.9824088108221349
      ],
      "children": [
        15
      ]
    },
    {
      "name": "lianeB3",
      "translation": [
        4.336808689942018e-18,
        0.28124999999999994,
        -2.7755575615628914e-17
      ],
      "rotation": [
        0.3007057995042732,
        5.456724265881563e-18,
        0.0,
        0.9537169507482269
      ]
    }
  ],
  "meshes": [
    {
      "name": "gorgone",
      "primitives": [
        {
          "attributes": {
            "POSITION": 0,
            "NORMAL": 1,
            "TEXCOORD_0": 2,
            "JOINTS_0": 3,
            "WEIGHTS_0": 4
          },
          "indices": 5,
          "mode": 4
        }
      ]
    }
  ],
  "skins": [
    {
      "name": "squelette",
      "joints": [
        1,
        2,
        3,
        4,
        5,
        6,
        7,
        8,
        9,
        10,
        11,
        12,
        13,
        14,
        15
      ],
      "inverseBindMatrices": 6
    }
  ],
  "accessors": [
    {
      "bufferView": 0,
      "componentType": 5126,
      "count": 624,
      "type": "VEC3",
      "min": [
        -0.695557975214227,
        -1.1095207185878007,
        -0.5424573187739581
      ],
      "max": [
        0.695557975214227,
        1.109520718587801,
        0.542457318773958
      ]
    },
    {
      "bufferView": 1,
      "componentType": 5126,
      "count": 624,
      "type": "VEC3"
    },
    {
      "bufferView": 2,
      "componentType": 5126,
      "count": 624,
      "type": "VEC2"
    },
    {
      "bufferView": 3,
      "componentType": 5123,
      "count": 624,
      "type": "VEC4"
    },
    {
      "bufferView": 4,
      "componentType": 5126,
      "count": 624,
      "type": "VEC4"
    },
    {
      "bufferView": 5,
      "componentType": 5123,
      "count": 936,
      "type": "SCALAR"
    },
    {
      "bufferView": 6,
      "componentType": 5126,
      "count": 15,
      "type": "MAT4"
    },
    {
      "bufferView": 7,
      "componentType": 5126,
      "count": 225,
      "type": "SCALAR",
      "min": [
        0.0
      ],
      "max": [
        22.22222222222222
      ]
    },
    {
      "bufferView": 8,
      "componentType": 5126,
      "count": 225,
      "type": "VEC4"
    },
    {
      "bufferView": 9,
      "componentType": 5126,
      "count": 225,
      "type": "VEC4"
    },
    {
      "bufferView": 10,
      "componentType": 5126,
      "count": 225,
      "type": "VEC4"
    },
    {
      "bufferView": 11,
      "componentType": 5126,
      "count": 225,
      "type": "VEC4"
    },
    {
      "bufferView": 12,
      "componentType": 5126,
      "count": 225,
      "type": "VEC4"
    },
    {
      "bufferView": 13,
      "componentType": 5126,
      "count": 225,
      "type": "VEC4"
    },
    {
      "bufferView": 14,
      "componentType": 5126,
      "count": 225,
      "type": "VEC4"
    },
    {
      "bufferView": 15,
      "componentType": 5126,
      "count": 225,
      "type": "VEC4"
    },
    {
      "bufferView": 16,
      "componentType": 5126,
      "count": 225,
      "type": "VEC4"
    },
    {
      "bufferView": 17,
      "componentType": 5126,
      "count": 225,
      "type": "VEC4"
    },
    {
      "bufferView": 18,
      "componentType": 5126,
      "count": 225,
      "type": "VEC4"
    },
    {
      "bufferView": 19,
      "componentType": 5126,
      "count": 225,
      "type": "VEC4"
    },
    {
      "bufferView": 20,
      "componentType": 5126,
      "count": 225,
      "type": "VEC4"
    },
    {
      "bufferView": 21,
      "componentType": 5126,
      "count": 225,
      "type": "VEC4"
    }
  ],
  "bufferViews": [
    {
      "buffer": 0,
      "byteOffset": 0,
      "byteLength": 7488
    },
    {
      "buffer": 0,
      "byteOffset": 7488,
      "byteLength": 7488
    },
    {
      "buffer": 0,
      "byteOffset": 14976,
      "byteLength": 4992
    },
    {
      "buffer": 0,
      "byteOffset": 19968,
      "byteLength": 4992
    },
    {
      "buffer": 0,
      "byteOffset": 24960,
      "byteLength": 9984
    },
    {
      "buffer": 0,
      "byteOffset": 34944,
      "byteLength": 1872
    },
    {
      "buffer": 0,
      "byteOffset": 36816,
      "byteLength": 960
    },
    {
      "buffer": 0,
      "byteOffset": 37776,
      "byteLength": 900
    },
    {
      "buffer": 0,
      "byteOffset": 38676,
      "byteLength": 3600
    },
    {
      "buffer": 0,
      "byteOffset": 42276,
      "byteLength": 3600
    },
    {
      "buffer": 0,
      "byteOffset": 45876,
      "byteLength": 3600
    },
    {
      "buffer": 0,
      "byteOffset": 49476,
      "byteLength": 3600
    },
    {
      "buffer": 0,
      "byteOffset": 53076,
      "byteLength": 3600
    },
    {
      "buffer": 0,
      "byteOffset": 56676,
      "byteLength": 3600
    },
    {
      "buffer": 0,
      "byteOffset": 60276,
      "byteLength": 3600
    },
    {
      "buffer": 0,
      "byteOffset": 63876,
      "byteLength": 3600
    },
    {
      "buffer": 0,
      "byteOffset": 67476,
      "byteLength": 3600
    },
    {
      "buffer": 0,
      "byteOffset": 71076,
      "byteLength": 3600
    },
    {
      "buffer": 0,
      "byteOffset": 74676,
      "byteLength": 3600
    },
    {
      "buffer": 0,
      "byteOffset": 78276,
      "byteLength": 3600
    },
    {
      "buffer": 0,
      "byteOffset": 81876,
      "byteLength": 3600
    },
    {
      "buffer": 0,
      "byteOffset": 85476,
      "byteLength": 3600
    }
  ],
  "buffers": [
    {
      "byteLength": 89076,
      "uri": "data:application/octet-stream;base64,"
    }
  ],
  "animations": [
    {
      "name": "repos",
      "samplers": [
        {
          "input": 7,
          "interpolation": "LINEAR",
          "output": 8
        },
        {
          "input": 7,
          "interpolation": "LINEAR",
          "output": 9
        },
        {
          "input": 7,
          "interpolation": "LINEAR",
          "output": 10
        },
        {
          "input": 7,
          "interpolation": "LINEAR",
          "output": 11
        },
        {
          "input": 7,
          "interpolation": "LINEAR",
          "output": 12
        },
        {
          "input": 7,
          "interpolation": "LINEAR",
          "output": 13
        },
        {
          "input": 7,
          "interpolation": "LINEAR",
          "output": 14
        },
        {
          "input": 7,
          "interpolation": "LINEAR",
          "output": 15
        },
        {
          "input": 7,
          "interpolation": "LINEAR",
          "output": 16
        },
        {
          "input": 7,
          "interpolation": "LINEAR",
          "output": 17
        },
        {
          "input": 7,
          "interpolation": "LINEAR",
          "output": 18
        },
        {
          "input": 7,
          "interpolation": "LINEAR",
          "output": 19
        },
        {
          "input": 7,
          "interpolation": "LINEAR",
          "output": 20
        },
        {
          "input": 7,
          "interpolation": "LINEAR",
          "output": 21
        }
      ],
      "channels": [
        {
          "sampler": 0,
          "target": {
            "node": 2,
            "path": "rotation"
          }
        },
        {
          "sampler": 1,
          "target": {
            "node": 3,
            "path": "rotation"
          }
        },
        {
          "sampler": 2,
          "target": {
            "node": 4,
            "path": "rotation"
          }
        },
        {
          "sampler": 3,
          "target": {
            "node": 5,
            "path": "rotation"
          }
        },
        {
          "sampler": 4,
          "target": {
            "node": 6,
            "path": "rotation"
          }
        },
        {
          "sampler": 5,
          "target": {
            "node": 7,
            "path": "rotation"
          }
        },
        {
          "sampler": 6,
          "target": {
            "node": 8,
            "path": "rotation"
          }
        },
        {
          "sampler": 7,
          "target": {
            "node": 9,
            "path": "rotation"
          }
        },
        {
          "sampler": 8,
          "target": {
            "node": 10,
            "path": "rotation"
          }
        },
        {
          "sampler": 9,
          "target": {
            "node": 11,
            "path": "rotation"
          }
        },
        {
          "sampler": 10,
          "target": {
            "node": 12,
            "path": "rotation"
          }
        },
        {
          "sampler": 11,
          "target": {
            "node": 13,
            "path": "rotation"
          }
        },
        {
          "sampler": 12,
          "target": {
            "node": 14,
            "path": "rotation"
          }
        },
        {
          "sampler": 13,
          "target": {
            "node": 15,
            "path": "rotation"
          }
        }
      ]
    }
  ]
}