{
  "asset": {
    "version": "2.0",
    "generator": "Evolve tools/bestiaire/construire.py"
  },
  "scene": 0,
  "scenes": [
    {
      "nodes": [
        0
      ]
    }
  ],
  "nodes": [
    {
      "name": "lapin",
      "mesh": 0,
      "skin": 0,
      "children": [
        1
      ]
    },
    {
      "name": "racine",
      "translation": [
        0.0,
        -0.39544166518029933,
        -0.0421875
      ],
      "children": [
        2,
        3,
        4,
        5
      ]
    },
    {
      "name": "patteAVD",
      "translation": [
        -0.084375,
        0.16874999999999998,
        0.140625
      ]
    },
    {
      "name": "patteAVG",
      "translation": [
        0.084375,
        0.16874999999999998,
        0.140625
      ]
    },
    {
      "name": "oreilleD",
      "translation": [
        -0.05625,
        0.50625,
        0.19687500000000002
      ],
      "rotation": [
        -0.17322517943366061,
        0.012113084546138431,
        0.06869671616600713,
        0.9824088108221349
      ]
    },
    {
      "name": "oreilleG",
      "translation": [
        0.05625,
        0.50625,
        0.19687500000000002
      ],
      "rotation": [
        -0.17322517943366061,
        -0.012113084546138431,
        -0.06869671616600713,
        0.9824088108221349
      ]
    }
  ],
  "meshes": [
    {
      "name": "lapin",
      "primitives": [
        {
          "attributes": {
            "POSITION": 0,
            "NORMAL": 1,
            "TEXCOORD_0": 2,
            "JOINTS_0": 3,
            "WEIGHTS_0": 4
          },
          "indices": 5,
          "mode": 4
        }
      ]
    }
  ],
  "skins": [
    {
      "name": "squelette",
      "joints": [
        1,
        2,
        3,
        4,
        5
      ],
      "inverseBindMatrices": 6
    }
  ],
  "accessors": [
    {
      "bufferView": 0,
      "componentType": 5126,
      "count": 216,
      "type": "VEC3",
      "min": [
        -0.16875,
        -0.39544166518029933,
        -0.3515625
      ],
      "max": [
        0.16875,
        0.39544166518029933,
        0.3515625
      ]
    },
    {
      "bufferView": 1,
      "componentType": 5126,
      "count": 216,
      "type": "VEC3"
    },
    {
      "bufferView": 2,
      "componentType": 5126,
      "count": 216,
      "type": "VEC2"
    },
    {
      "bufferView": 3,
      "componentType": 5123,
      "count": 216,
      "type": "VEC4"
    },
    {
      "bufferView": 4,
      "componentType": 5126,
      "count": 216,
      "type": "VEC4"
    },
    {
      "bufferView": 5,
      "componentType": 5123,
      "count": 324,
      "type": "SCALAR"
    },
    {
      "bufferView": 6,
      "componentType": 5126,
      "count": 5,
      "type": "MAT4"
    },
    {
      "bufferView": 7,
      "componentType": 5126,
      "count": 225,
      "type": "SCALAR",
      "min": [
        0.0
      ],
      "max": [
        11.11111111111111
      ]
    },
    {
      "bufferView": 8,
      "componentType": 5126,
      "count": 225,
      "type": "VEC4"
    },
    {
      "bufferView": 9,
      "componentType": 5126,
      "count": 225,
      "type": "VEC4"
    },
    {
      "bufferView": 10,
      "componentType": 5126,
      "count": 225,
      "type": "VEC4"
    },
    {
      "bufferView": 11,
      "componentType": 5126,
      "count": 225,
      "type": "VEC4"
    }
  ],
  "bufferViews": [
    {
      "buffer": 0,
      "byteOffset": 0,
      "byteLength": 2592
    },
    {
      "buffer": 0,
      "byteOffset": 2592,
      "byteLength": 2592
    },
    {
      "buffer": 0,
      "byteOffset": 5184,
      "byteLength": 1728
    },
    {
      "buffer": 0,
      "byteOffset": 6912,
      "byteLength": 1728
    },
    {
      "buffer": 0,
      "byteOffset": 8640,
      "byteLength": 3456
    },
    {
      "buffer": 0,
      "byteOffset": 12096,
      "byteLength": 648
    },
    {
      "buffer": 0,
      "byteOffset": 12744,
      "byteLength": 320
    },
    {
      "buffer": 0,
      "byteOffset": 13064,
      "byteLength": 900
    },
    {
      "buffer": 0,
      "byteOffset": 13964,
      "byteLength": 3600
    },
    {
      "buffer": 0,
      "byteOffset": 17564,
      "byteLength": 3600
    },
    {
      "buffer": 0,
      "byteOffset": 21164,
      "byteLength": 3600
    },
    {
      "buffer": 0,
      "byteOffset": 24764,
      "byteLength": 3600
    }
  ],
  "buffers": [
    {
      "byteLength": 28364,
      "uri": "data:application/octet-stream;base64,"
    }
  ],
  "animations": [
    {
      "name": "repos",
      "samplers": [
        {
          "input": 7,
          "interpolation": "LINEAR",
          "output": 8
        },
        {
          "input": 7,
          "interpolation": "LINEAR",
          "output": 9
        },
        {
          "input": 7,
          "interpolation": "LINEAR",
          "output": 10
        },
        {
          "input": 7,
          "interpolation": "LINEAR",
          "output": 11
        }
      ],
      "channels": [
        {
          "sampler": 0,
          "target": {
            "node": 2,
            "path": "rotation"
          }
        },
        {
          "sampler": 1,
          "target": {
            "node": 3,
            "path": "rotation"
          }
        },
        {
          "sampler": 2,
          "target": {
            "node": 4,
            "path": "rotation"
          }
        },
        {
          "sampler": 3,
          "target": {
            "node": 5,
            "path": "rotation"
          }
        }
      ]
    }
  ]
}