{
  "asset": {
    "version": "2.0",
    "generator": "Evolve tools/bestiaire/construire.py"
  },
  "scene": 0,
  "scenes": [
    {
      "nodes": [
        0
      ]
    }
  ],
  "nodes": [
    {
      "name": "lezard",
      "mesh": 0,
      "skin": 0,
      "children": [
        1
      ]
    },
    {
      "name": "racine",
      "translation": [
        0.0,
        -0.225,
        0.3375
      ],
      "children": [
        2,
        3,
        4,
        5,
        6,
        7
      ]
    },
    {
      "name": "patteAVD",
      "translation": [
        -0.196875,
        0.16875,
        0.25312500000000004
      ],
      "rotation": [
        0.0,
        0.0,
        -0.3420201433256687,
        0.9396926207859083
      ]
    },
    {
      "name": "patteAVG",
      "translation": [
        0.196875,
        0.16875,
        0.25312500000000004
      ],
      "rotation": [
        0.0,
        0.0,
        0.3420201433256687,
        0.9396926207859083
      ]
    },
    {
      "name": "patteARD",
      "translation": [
        -0.196875,
        0.16875,
        -0.25312500000000004
      ],
      "rotation": [
        0.0,
        0.0,
        -0.3420201433256687,
        0.9396926207859083
      ]
    },
    {
      "name": "patteARG",
      "translation": [
        0.196875,
        0.16875,
        -0.25312500000000004
      ],
      "rotation": [
        0.0,
        0.0,
        0.3420201433256687,
        0.9396926207859083
      ]
    },
    {
      "name": "tete",
      "translation": [
        0.0,
        0.225,
        0.39375000000000004
      ]
    },
    {
      "name": "queue1",
      "translation": [
        0.0,
        0.253125,
        -0.39375000000000004
      ],
      "children": [
        8
      ]
    },
    {
      "name": "queue2",
      "translation": [
        0.0,
        -0.028125,
        -0.33749999999999997
      ],
      "children": [
        9
      ]
    },
    {
      "name": "queue3",
      "translation": [
        0.0,
        0.0,
        -0.3375000000000001
      ]
    }
  ],
  "meshes": [
    {
      "name": "lezard",
      "primitives": [
        {
          "attributes": {
            "POSITION": 0,
            "NORMAL": 1,
            "TEXCOORD_0": 2,
            "JOINTS_0": 3,
            "WEIGHTS_0": 4
          },
          "indices": 5,
          "mode": 4
        }
      ]
    }
  ],
  "skins": [
    {
      "name": "squelette",
      "joints": [
        1,
        2,
        3,
        4,
        5,
        6,
        7,
        8,
        9
      ],
      "inverseBindMatrices": 6
    }
  ],
  "accessors": [
    {
      "bufferView": 0,
      "componentType": 5126,
      "count": 288,
      "type": "VEC3",
      "min": [
        -0.38459221210491384,
        -0.2647668027466379,
        -1.06875
      ],
      "max": [
        0.38459221210491384,
        0.225,
        1.06875
      ]
    },
    {
      "bufferView": 1,
      "componentType": 5126,
      "count": 288,
      "type": "VEC3"
    },
    {
      "bufferView": 2,
      "componentType": 5126,
      "count": 288,
      "type": "VEC2"
    },
    {
      "bufferView": 3,
      "componentType": 5123,
      "count": 288,
      "type": "VEC4"
    },
    {
      "bufferView": 4,
      "componentType": 5126,
      "count": 288,
      "type": "VEC4"
    },
    {
      "bufferView": 5,
      "componentType": 5123,
      "count": 432,
      "type": "SCALAR"
    },
    {
      "bufferView": 6,
      "componentType": 5126,
      "count": 9,
      "type": "MAT4"
    },
    {
      "bufferView": 7,
      "componentType": 5126,
      "count": 81,
      "type": "SCALAR",
      "min": [
        0.0
      ],
      "max": [
        5.555555555555555
      ]
    },
    {
      "bufferView": 8,
      "componentType": 5126,
      "count": 81,
      "type": "VEC4"
    },
    {
      "bufferView": 9,
      "componentType": 5126,
      "count": 81,
      "type": "VEC4"
    },
    {
      "bufferView": 10,
      "componentType": 5126,
      "count": 81,
      "type": "VEC4"
    },
    {
      "bufferView": 11,
      "componentType": 5126,
      "count": 81,
      "type": "VEC4"
    },
    {
      "bufferView": 12,
      "componentType": 5126,
      "count": 81,
      "type": "VEC4"
    },
    {
      "bufferView": 13,
      "componentType": 5126,
      "count": 81,
      "type": "VEC4"
    },
    {
      "bufferView": 14,
      "componentType": 5126,
      "count": 81,
      "type": "VEC4"
    },
    {
      "bufferView": 15,
      "componentType": 5126,
      "count": 81,
      "type": "VEC4"
    }
  ],
  "bufferViews": [
    {
      "buffer": 0,
      "byteOffset": 0,
      "byteLength": 3456
    },
    {
      "buffer": 0,
      "byteOffset": 3456,
      "byteLength": 3456
    },
    {
      "buffer": 0,
      "byteOffset": 6912,
      "byteLength": 2304
    },
    {
      "buffer": 0,
      "byteOffset": 9216,
      "byteLength": 2304
    },
    {
      "buffer": 0,
      "byteOffset": 11520,
      "byteLength": 4608
    },
    {
      "buffer": 0,
      "byteOffset": 16128,
      "byteLength": 864
    },
    {
      "buffer": 0,
      "byteOffset": 16992,
      "byteLength": 576
    },
    {
      "buffer": 0,
      "byteOffset": 17568,
      "byteLength": 324
    },
    {
      "buffer": 0,
      "byteOffset": 17892,
      "byteLength": 1296
    },
    {
      "buffer": 0,
      "byteOffset": 19188,
      "byteLength": 1296
    },
    {
      "buffer": 0,
      "byteOffset": 20484,
      "byteLength": 1296
    },
    {
      "buffer": 0,
      "byteOffset": 21780,
      "byteLength": 1296
    },
    {
      "buffer": 0,
      "byteOffset": 23076,
      "byteLength": 1296
    },
    {
      "buffer": 0,
      "byteOffset": 24372,
      "byteLength": 1296
    },
    {
      "buffer": 0,
      "byteOffset": 25668,
      "byteLength": 1296
    },
    {
      "buffer": 0,
      "byteOffset": 26964,
      "byteLength": 1296
    }
  ],
  "buffers": [
    {
      "byteLength": 28260,
      "uri": "data:application/octet-stream;base64,"
    }
  ],
  "animations": [
    {
      "name": "repos",
      "samplers": [
        {
          "input": 7,
          "interpolation": "LINEAR",
          "output": 8
        },
        {
          "input": 7,
          "interpolation": "LINEAR",
          "output": 9
        },
        {
          "input": 7,
          "interpolation": "LINEAR",
          "output": 10
        },
        {
          "input": 7,
          "interpolation": "LINEAR",
          "output": 11
        },
        {
          "input": 7,
          "interpolation": "LINEAR",
          "output": 12
        },
        {
          "input": 7,
          "interpolation": "LINEAR",
          "output": 13
        },
        {
          "input": 7,
          "interpolation": "LINEAR",
          "output": 14
        },
        {
          "input": 7,
          "interpolation": "LINEAR",
          "output": 15
        }
      ],
      "channels": [
        {
          "sampler": 0,
          "target": {
            "node": 2,
            "path": "rotation"
          }
        },
        {
          "sampler": 1,
          "target": {
            "node": 3,
            "path": "rotation"
          }
        },
        {
          "sampler": 2,
          "target": {
            "node": 4,
            "path": "rotation"
          }
        },
        {
          "sampler": 3,
          "target": {
            "node": 5,
            "path": "rotation"
          }
        },
        {
          "sampler": 4,
          "target": {
            "node": 6,
            "path": "rotation"
          }
        },
        {
          "sampler": 5,
          "target": {
            "node": 7,
            "path": "rotation"
          }
        },
        {
          "sampler": 6,
          "target": {
            "node": 8,
            "path": "rotation"
          }
        },
        {
          "sampler": 7,
          "target": {
            "node": 9,
            "path": "rotation"
          }
        }
      ]
    }
  ]
}