{
  "asset": {
    "version": "2.0",
    "generator": "Evolve tools/bestiaire/construire.py"
  },
  "scene": 0,
  "scenes": [
    {
      "nodes": [
        0
      ]
    }
  ],
  "nodes": [
    {
      "name": "loup",
      "mesh": 0,
      "skin": 0,
      "children": [
        1
      ]
    },
    {
      "name": "racine",
      "translation": [
        0.0,
        -0.50625,
        -0.06674645276260367
      ],
      "children": [
        2,
        3,
        4,
        5,
        6,
        7
      ]
    },
    {
      "name": "patteAVD",
      "translation": [
        -0.1125,
        0.44999999999999996,
        0.253125
      ]
    },
    {
      "name": "patteAVG",
      "translation": [
        0.1125,
        0.44999999999999996,
        0.253125
      ]
    },
    {
      "name": "patteARD",
      "translation": [
        -0.1125,
        0.44999999999999996,
        -0.309375
      ]
    },
    {
      "name": "patteARG",
      "translation": [
        0.1125,
        0.44999999999999996,
        -0.309375
      ]
    },
    {
      "name": "tete",
      "translation": [
        0.0,
        0.73125,
        0.421875
      ]
    },
    {
      "name": "queue",
      "translation": [
        0.0,
        0.73125,
        -0.39375
      ],
      "rotation": [
        0.4617486132350339,
        0.0,
        0.0,
        0.8870108331782217
      ]
    }
  ],
  "meshes": [
    {
      "name": "loup",
      "primitives": [
        {
          "attributes": {
            "POSITION": 0,
            "NORMAL": 1,
            "TEXCOORD_0": 2,
            "JOINTS_0": 3,
            "WEIGHTS_0": 4
          },
          "indices": 5,
          "mode": 4
        }
      ]
    }
  ],
  "skins": [
    {
      "name": "squelette",
      "joints": [
        1,
        2,
        3,
        4,
        5,
        6,
        7
      ],
      "inverseBindMatrices": 6
    }
  ],
  "accessors": [
    {
      "bufferView": 0,
      "componentType": 5126,
      "count": 264,
      "type": "VEC3",
      "min": [
        -0.225,
        -0.50625,
        -0.8613785472373964
      ],
      "max": [
        0.225,
        0.50625,
        0.8613785472373964
      ]
    },
    {
      "bufferView": 1,
      "componentType": 5126,
      "count": 264,
      "type": "VEC3"
    },
    {
      "bufferView": 2,
      "componentType": 5126,
      "count": 264,
      "type": "VEC2"
    },
    {
      "bufferView": 3,
      "componentType": 5123,
      "count": 264,
      "type": "VEC4"
    },
    {
      "bufferView": 4,
      "componentType": 5126,
      "count": 264,
      "type": "VEC4"
    },
    {
      "bufferView": 5,
      "componentType": 5123,
      "count": 396,
      "type": "SCALAR"
    },
    {
      "bufferView": 6,
      "componentType": 5126,
      "count": 7,
      "type": "MAT4"
    },
    {
      "bufferView": 7,
      "componentType": 5126,
      "count": 225,
      "type": "SCALAR",
      "min": [
        0.0
      ],
      "max": [
        11.11111111111111
      ]
    },
    {
      "bufferView": 8,
      "componentType": 5126,
      "count": 225,
      "type": "VEC4"
    },
    {
      "bufferView": 9,
      "componentType": 5126,
      "count": 225,
      "type": "VEC4"
    },
    {
      "bufferView": 10,
      "componentType": 5126,
      "count": 225,
      "type": "VEC4"
    },
    {
      "bufferView": 11,
      "componentType": 5126,
      "count": 225,
      "type": "VEC4"
    },
    {
      "bufferView": 12,
      "componentType": 5126,
      "count": 225,
      "type": "VEC4"
    },
    {
      "bufferView": 13,
      "componentType": 5126,
      "count": 225,
      "type": "VEC4"
    }
  ],
  "bufferViews": [
    {
      "buffer": 0,
      "byteOffset": 0,
      "byteLength": 3168
    },
    {
      "buffer": 0,
      "byteOffset": 3168,
      "byteLength": 3168
    },
    {
      "buffer": 0,
      "byteOffset": 6336,
      "byteLength": 2112
    },
    {
      "buffer": 0,
      "byteOffset": 8448,
      "byteLength": 2112
    },
    {
      "buffer": 0,
      "byteOffset": 10560,
      "byteLength": 4224
    },
    {
      "buffer": 0,
      "byteOffset": 14784,
      "byteLength": 792
    },
    {
      "buffer": 0,
      "byteOffset": 15576,
      "byteLength": 448
    },
    {
      "buffer": 0,
      "byteOffset": 16024,
      "byteLength": 900
    },
    {
      "buffer": 0,
      "byteOffset": 16924,
      "byteLength": 3600
    },
    {
      "buffer": 0,
      "byteOffset": 20524,
      "byteLength": 3600
    },
    {
      "buffer": 0,
      "byteOffset": 24124,
      "byteLength": 3600
    },
    {
      "buffer": 0,
      "byteOffset": 27724,
      "byteLength": 3600
    },
    {
      "buffer": 0,
      "byteOffset": 31324,
      "byteLength": 3600
    },
    {
      "buffer": 0,
      "byteOffset": 34924,
      "byteLength": 3600
    }
  ],
  "buffers": [
    {
      "byteLength": 38524,
      "uri": "data:application/octet-stream;base64,"
    }
  ],
  "animations": [
    {
      "name": "repos",
      "samplers": [
        {
          "input": 7,
          "interpolation": "LINEAR",
          "output": 8
        },
        {
          "input": 7,
          "interpolation": "LINEAR",
          "output": 9
        },
        {
          "input": 7,
          "interpolation": "LINEAR",
          "output": 10
        },
        {
          "input": 7,
          "interpolation": "LINEAR",
          "output": 11
        },
        {
          "input": 7,
          "interpolation": "LINEAR",
          "output": 12
        },
        {
          "input": 7,
          "interpolation": "LINEAR",
          "output": 13
        }
      ],
      "channels": [
        {
          "sampler": 0,
          "target": {
            "node": 2,
            "path": "rotation"
          }
        },
        {
          "sampler": 1,
          "target": {
            "node": 3,
            "path": "rotation"
          }
        },
        {
          "sampler": 2,
          "target": {
            "node": 4,
            "path": "rotation"
          }
        },
        {
          "sampler": 3,
          "target": {
            "node": 5,
            "path": "rotation"
          }
        },
        {
          "sampler": 4,
          "target": {
            "node": 6,
            "path": "rotation"
          }
        },
        {
          "sampler": 5,
          "target": {
            "node": 7,
            "path": "rotation"
          }
        }
      ]
    }
  ]
}