{
  "asset": {
    "version": "2.0",
    "generator": "Evolve tools/bestiaire/construire.py"
  },
  "scene": 0,
  "scenes": [
    {
      "nodes": [
        0
      ]
    }
  ],
  "nodes": [
    {
      "name": "mannequin",
      "mesh": 0,
      "skin": 0,
      "children": [
        1
      ]
    },
    {
      "name": "racine",
      "translation": [
        0.0,
        -1.0125,
        0.0
      ],
      "children": [
        2
      ]
    },
    {
      "name": "poteau",
      "translation": [
        0.0,
        0.11249999999999993,
        0.0
      ],
      "children": [
        3
      ]
    },
    {
      "name": "tete",
      "translation": [
        0.0,
        1.603125,
        0.0
      ]
    }
  ],
  "meshes": [
    {
      "name": "mannequin",
      "primitives": [
        {
          "attributes": {
            "POSITION": 0,
            "NORMAL": 1,
            "TEXCOORD_0": 2,
            "JOINTS_0": 3,
            "WEIGHTS_0": 4
          },
          "indices": 5,
          "mode": 4
        }
      ]
    }
  ],
  "skins": [
    {
      "name": "squelette",
      "joints": [
        1,
        2,
        3
      ],
      "inverseBindMatrices": 6
    }
  ],
  "accessors": [
    {
      "bufferView": 0,
      "componentType": 5126,
      "count": 192,
      "type": "VEC3",
      "min": [
        -0.675,
        -1.0125,
        -0.3375
      ],
      "max": [
        0.675,
        1.0125,
        0.3375
      ]
    },
    {
      "bufferView": 1,
      "componentType": 5126,
      "count": 192,
      "type": "VEC3"
    },
    {
      "bufferView": 2,
      "componentType": 5126,
      "count": 192,
      "type": "VEC2"
    },
    {
      "bufferView": 3,
      "componentType": 5123,
      "count": 192,
      "type": "VEC4"
    },
    {
      "bufferView": 4,
      "componentType": 5126,
      "count": 192,
      "type": "VEC4"
    },
    {
      "bufferView": 5,
      "componentType": 5123,
      "count": 288,
      "type": "SCALAR"
    },
    {
      "bufferView": 6,
      "componentType": 5126,
      "count": 3,
      "type": "MAT4"
    },
    {
      "bufferView": 7,
      "componentType": 5126,
      "count": 17,
      "type": "SCALAR",
      "min": [
        0.0
      ],
      "max": [
        2.2222222222222223
      ]
    },
    {
      "bufferView": 8,
      "componentType": 5126,
      "count": 17,
      "type": "VEC4"
    },
    {
      "bufferView": 9,
      "componentType": 5126,
      "count": 17,
      "type": "VEC4"
    }
  ],
  "bufferViews": [
    {
      "buffer": 0,
      "byteOffset": 0,
      "byteLength": 2304
    },
    {
      "buffer": 0,
      "byteOffset": 2304,
      "byteLength": 2304
    },
    {
      "buffer": 0,
      "byteOffset": 4608,
      "byteLength": 1536
    },
    {
      "buffer": 0,
      "byteOffset": 6144,
      "byteLength": 1536
    },
    {
      "buffer": 0,
      "byteOffset": 7680,
      "byteLength": 3072
    },
    {
      "buffer": 0,
      "byteOffset": 10752,
      "byteLength": 576
    },
    {
      "buffer": 0,
      "byteOffset": 11328,
      "byteLength": 192
    },
    {
      "buffer": 0,
      "byteOffset": 11520,
      "byteLength": 68
    },
    {
      "buffer": 0,
      "byteOffset": 11588,
      "byteLength": 272
    },
    {
      "buffer": 0,
      "byteOffset": 11860,
      "byteLength": 272
    }
  ],
  "buffers": [
    {
      "byteLength": 12132,
      "uri": "data:application/octet-stream;base64,"
    }
  ],
  "animations": [
    {
      "name": "repos",
      "samplers": [
        {
          "input": 7,
          "interpolation": "LINEAR",
          "output": 8
        },
        {
          "input": 7,
          "interpolation": "LINEAR",
          "output": 9
        }
      ],
      "channels": [
        {
          "sampler": 0,
          "target": {
            "node": 2,
            "path": "rotation"
          }
        },
        {
          "sampler": 1,
          "target": {
            "node": 3,
            "path": "rotation"
          }
        }
      ]
    }
  ]
}