{
  "asset": {
    "version": "2.0",
    "generator": "Evolve tools/bestiaire/construire.py"
  },
  "scene": 0,
  "scenes": [
    {
      "nodes": [
        0
      ]
    }
  ],
  "nodes": [
    {
      "name": "millepattes",
      "mesh": 0,
      "skin": 0,
      "children": [
        1
      ]
    },
    {
      "name": "racine",
      "translation": [
        0.0,
        -0.37584357356343473,
        0.794006687138861
      ],
      "children": [
        2
      ]
    },
    {
      "name": "segment0",
      "translation": [
        0.0,
        0.22499999999999998,
        0.22499999999999998
      ],
      "children": [
        3,
        4,
        5,
        32,
        33,
        34,
        35
      ]
    },
    {
      "name": "patte-1",
      "translation": [
        -0.16875,
        0.0,
        -0.11250000000000016
      ],
      "rotation": [
        0.0,
        0.0,
        -0.4617486132350339,
        0.8870108331782217
      ]
    },
    {
      "name": "patte1",
      "translation": [
        0.16875,
        0.0,
        -0.11250000000000016
      ],
      "rotation": [
        0.0,
        0.0,
        0.4617486132350339,
        0.8870108331782217
      ]
    },
    {
      "name": "segment1",
      "translation": [
        0.0,
        0.0,
        -0.22499999999999998
      ],
      "children": [
        6,
        7,
        8
      ]
    },
    {
      "name": "patte-1",
      "translation": [
        -0.16875,
        0.0,
        -0.11250000000000004
      ],
      "rotation": [
        0.0,
        0.0,
        -0.4617486132350339,
        0.8870108331782217
      ]
    },
    {
      "name": "patte1",
      "translation": [
        0.16875,
        0.0,
        -0.11250000000000004
      ],
      "rotation": [
        0.0,
        0.0,
        0.4617486132350339,
        0.8870108331782217
      ]
    },
    {
      "name": "segment2",
      "translation": [
        0.0,
        0.0,
        -0.2250000000000001
      ],
      "children": [
        9,
        10,
        11
      ]
    },
    {
      "name": "patte-1",
      "translation": [
        -0.16875,
        0.0,
        -0.11249999999999993
      ],
      "rotation": [
        0.0,
        0.0,
        -0.4617486132350339,
        0.8870108331782217
      ]
    },
    {
      "name": "patte1",
      "translation": [
        0.16875,
        0.0,
        -0.11249999999999993
      ],
      "rotation": [
        0.0,
        0.0,
        0.4617486132350339,
        0.8870108331782217
      ]
    },
    {
      "name": "segment3",
      "translation": [
        0.0,
        0.0,
        -0.22499999999999998
      ],
      "children": [
        12,
        13,
        14
      ]
    },
    {
      "name": "patte-1",
      "translation": [
        -0.16875,
        0.0,
        -0.11249999999999999
      ],
      "rotation": [
        0.0,
        0.0,
        -0.4617486132350339,
        0.8870108331782217
      ]
    },
    {
      "name": "patte1",
      "translation": [
        0.16875,
        0.0,
        -0.11249999999999999
      ],
      "rotation": [
        0.0,
        0.0,
        0.4617486132350339,
        0.8870108331782217
      ]
    },
    {
      "name": "segment4",
      "translation": [
        0.0,
        0.0,
        -0.22499999999999998
      ],
      "children": [
        15,
        16,
        17
      ]
    },
    {
      "name": "patte-1",
      "translation": [
        -0.16875,
        0.0,
        -0.1125
      ],
      "rotation": [
        0.0,
        0.0,
        -0.4617486132350339,
        0.8870108331782217
      ]
    },
    {
      "name": "patte1",
      "translation": [
        0.16875,
        0.0,
        -0.1125
      ],
      "rotation": [
        0.0,
        0.0,
        0.4617486132350339,
        0.8870108331782217
      ]
    },
    {
      "name": "segment5",
      "translation": [
        0.0,
        0.0,
        -0.225
      ],
      "children": [
        18,
        19,
        20
      ]
    },
    {
      "name": "patte-1",
      "translation": [
        -0.16875,
        0.0,
        -0.1125
      ],
      "rotation": [
        0.0,
        0.0,
        -0.4617486132350339,
        0.8870108331782217
      ]
    },
    {
      "name": "patte1",
      "translation": [
        0.16875,
        0.0,
        -0.1125
      ],
      "rotation": [
        0.0,
        0.0,
        0.4617486132350339,
        0.8870108331782217
      ]
    },
    {
      "name": "segment6",
      "translation": [
        0.0,
        0.0,
        -0.22499999999999998
      ],
      "children": [
        21,
        22,
        23
      ]
    },
    {
      "name": "patte-1",
      "translation": [
        -0.16875,
        0.0,
        -0.11249999999999999
      ],
      "rotation": [
        0.0,
        0.0,
        -0.4617486132350339,
        0.8870108331782217
      ]
    },
    {
      "name": "patte1",
      "translation": [
        0.16875,
        0.0,
        -0.11249999999999999
      ],
      "rotation": [
        0.0,
        0.0,
        0.4617486132350339,
        0.8870108331782217
      ]
    },
    {
      "name": "segment7",
      "translation": [
        0.0,
        0.0,
        -0.22500000000000003
      ],
      "children": [
        24,
        25,
        26
      ]
    },
    {
      "name": "patte-1",
      "translation": [
        -0.16875,
        0.0,
        -0.11249999999999993
      ],
      "rotation": [
        0.0,
        0.0,
        -0.4617486132350339,
        0.8870108331782217
      ]
    },
    {
      "name": "patte1",
      "translation": [
        0.16875,
        0.0,
        -0.11249999999999993
      ],
      "rotation": [
        0.0,
        0.0,
        0.4617486132350339,
        0.8870108331782217
      ]
    },
    {
      "name": "segment8",
      "translation": [
        0.0,
        0.0,
        -0.22499999999999998
      ],
      "children": [
        27,
        28,
        29
      ]
    },
    {
      "name": "patte-1",
      "translation": [
        -0.16875,
        0.0,
        -0.11250000000000004
      ],
      "rotation": [
        0.0,
        0.0,
        -0.4617486132350339,
        0.8870108331782217
      ]
    },
    {
      "name": "patte1",
      "translation": [
        0.16875,
        0.0,
        -0.11250000000000004
      ],
      "rotation": [
        0.0,
        0.0,
        0.4617486132350339,
        0.8870108331782217
      ]
    },
    {
      "name": "segment9",
      "translation": [
        0.0,
        0.0,
        -0.2250000000000001
      ],
      "children": [
        30,
        31
      ]
    },
    {
      "name": "patte-1",
      "translation": [
        -0.16875,
        0.0,
        -0.11250000000000004
      ],
      "rotation": [
        0.0,
        0.0,
        -0.4617486132350339,
        0.8870108331782217
      ]
    },
    {
      "name": "patte1",
      "translation": [
        0.16875,
        0.0,
        -0.11250000000000004
      ],
      "rotation": [
        0.0,
        0.0,
        0.4617486132350339,
        0.8870108331782217
      ]
    },
    {
      "name": "mandibuleD",
      "translation": [
        -0.140625,
        -0.023265706445072976,
        0.23917116784556547
      ],
      "rotation": [
        -0.12743220028900526,
        0.21458794303666345,
        -0.028251038652918573,
        0.967943659438827
      ]
    },
    {
      "name": "mandibuleG",
      "translation": [
        0.140625,
        -0.023265706445072976,
        0.23917116784556547
      ],
      "rotation": [
        -0.12743220028900526,
        -0.21458794303666345,
        0.028251038652918573,
        0.967943659438827
      ]
    },
    {
      "name": "antenneD",
      "translation": [
        -0.1125,
        0.16690094060558736,
        0.18821616834100663
      ],
      "rotation": [
        -0.41619774072678345,
        -0.17101007166283438,
        -0.030153689607045807,
        0.89253893528903
      ]
    },
    {
      "name": "antenneG",
      "translation": [
        0.1125,
        0.16690094060558736,
        0.18821616834100663
      ],
      "rotation": [
        -0.41619774072678345,
        0.17101007166283438,
        0.030153689607045807,
        0.89253893528903
      ]
    }
  ],
  "meshes": [
    {
      "name": "millepattes",
      "primitives": [
        {
          "attributes": {
            "POSITION": 0,
            "NORMAL": 1,
            "TEXCOORD_0": 2,
            "JOINTS_0": 3,
            "WEIGHTS_0": 4
          },
          "indices": 5,
          "mode": 4
        }
      ]
    }
  ],
  "skins": [
    {
      "name": "squelette",
      "joints": [
        1,
        2,
        3,
        4,
        5,
        6,
        7,
        8,
        9,
        10,
        11,
        12,
        13,
        14,
        15,
        16,
        17,
        18,
        19,
        20,
        21,
        22,
        23,
        24,
        25,
        26,
        27,
        28,
        29,
        30,
        31,
        32,
        33,
        34,
        35
      ],
      "inverseBindMatrices": 6
    }
  ],
  "accessors": [
    {
      "bufferView": 0,
      "componentType": 5126,
      "count": 888,
      "type": "VEC3",
      "min": [
        -0.5074229547111637,
        -0.39972794662228706,
        -1.5049011789882103
      ],
      "max": [
        0.5074229547111637,
        0.37584357356343495,
        1.5049011789882103
      ]
    },
    {
      "bufferView": 1,
      "componentType": 5126,
      "count": 888,
      "type": "VEC3"
    },
    {
      "bufferView": 2,
      "componentType": 5126,
      "count": 888,
      "type": "VEC2"
    },
    {
      "bufferView": 3,
      "componentType": 5123,
      "count": 888,
      "type": "VEC4"
    },
    {
      "bufferView": 4,
      "componentType": 5126,
      "count": 888,
      "type": "VEC4"
    },
    {
      "bufferView": 5,
      "componentType": 5123,
      "count": 1332,
      "type": "SCALAR"
    },
    {
      "bufferView": 6,
      "componentType": 5126,
      "count": 35,
      "type": "MAT4"
    },
    {
      "bufferView": 7,
      "componentType": 5126,
      "count": 257,
      "type": "SCALAR",
      "min": [
        0.0
      ],
      "max": [
        11.11111111111111
      ]
    },
    {
      "bufferView": 8,
      "componentType": 5126,
      "count": 257,
      "type": "VEC4"
    },
    {
      "bufferView": 9,
      "componentType": 5126,
      "count": 257,
      "type": "VEC4"
    },
    {
      "bufferView": 10,
      "componentType": 5126,
      "count": 257,
      "type": "VEC4"
    },
    {
      "bufferView": 11,
      "componentType": 5126,
      "count": 257,
      "type": "VEC4"
    },
    {
      "bufferView": 12,
      "componentType": 5126,
      "count": 257,
      "type": "VEC4"
    },
    {
      "bufferView": 13,
      "componentType": 5126,
      "count": 257,
      "type": "VEC4"
    },
    {
      "bufferView": 14,
      "componentType": 5126,
      "count": 257,
      "type": "VEC4"
    },
    {
      "bufferView": 15,
      "componentType": 5126,
      "count": 257,
      "type": "VEC4"
    },
    {
      "bufferView": 16,
      "componentType": 5126,
      "count": 257,
      "type": "VEC4"
    },
    {
      "bufferView": 17,
      "componentType": 5126,
      "count": 257,
      "type": "VEC4"
    },
    {
      "bufferView": 18,
      "componentType": 5126,
      "count": 257,
      "type": "VEC4"
    },
    {
      "bufferView": 19,
      "componentType": 5126,
      "count": 257,
      "type": "VEC4"
    },
    {
      "bufferView": 20,
      "componentType": 5126,
      "count": 257,
      "type": "VEC4"
    },
    {
      "bufferView": 21,
      "componentType": 5126,
      "count": 257,
      "type": "VEC4"
    },
    {
      "bufferView": 22,
      "componentType": 5126,
      "count": 257,
      "type": "VEC4"
    },
    {
      "bufferView": 23,
      "componentType": 5126,
      "count": 257,
      "type": "VEC4"
    },
    {
      "bufferView": 24,
      "componentType": 5126,
      "count": 257,
      "type": "VEC4"
    },
    {
      "bufferView": 25,
      "componentType": 5126,
      "count": 257,
      "type": "VEC4"
    },
    {
      "bufferView": 26,
      "componentType": 5126,
      "count": 257,
      "type": "VEC4"
    },
    {
      "bufferView": 27,
      "componentType": 5126,
      "count": 257,
      "type": "VEC4"
    },
    {
      "bufferView": 28,
      "componentType": 5126,
      "count": 257,
      "type": "VEC4"
    },
    {
      "bufferView": 29,
      "componentType": 5126,
      "count": 257,
      "type": "VEC4"
    },
    {
      "bufferView": 30,
      "componentType": 5126,
      "count": 257,
      "type": "VEC4"
    },
    {
      "bufferView": 31,
      "componentType": 5126,
      "count": 257,
      "type": "VEC4"
    },
    {
      "bufferView": 32,
      "componentType": 5126,
      "count": 257,
      "type": "VEC4"
    },
    {
      "bufferView": 33,
      "componentType": 5126,
      "count": 257,
      "type": "VEC4"
    },
    {
      "bufferView": 34,
      "componentType": 5126,
      "count": 257,
      "type": "VEC4"
    },
    {
      "bufferView": 35,
      "componentType": 5126,
      "count": 257,
      "type": "VEC4"
    },
    {
      "bufferView": 36,
      "componentType": 5126,
      "count": 257,
      "type": "VEC4"
    },
    {
      "bufferView": 37,
      "componentType": 5126,
      "count": 257,
      "type": "VEC4"
    },
    {
      "bufferView": 38,
      "componentType": 5126,
      "count": 257,
      "type": "VEC4"
    },
    {
      "bufferView": 39,
      "componentType": 5126,
      "count": 257,
      "type": "VEC4"
    },
    {
      "bufferView": 40,
      "componentType": 5126,
      "count": 257,
      "type": "VEC4"
    },
    {
      "bufferView": 41,
      "componentType": 5126,
      "count": 257,
      "type": "VEC4"
    }
  ],
  "bufferViews": [
    {
      "buffer": 0,
      "byteOffset": 0,
      "byteLength": 10656
    },
    {
      "buffer": 0,
      "byteOffset": 10656,
      "byteLength": 10656
    },
    {
      "buffer": 0,
      "byteOffset": 21312,
      "byteLength": 7104
    },
    {
      "buffer": 0,
      "byteOffset": 28416,
      "byteLength": 7104
    },
    {
      "buffer": 0,
      "byteOffset": 35520,
      "byteLength": 14208
    },
    {
      "buffer": 0,
      "byteOffset": 49728,
      "byteLength": 2664
    },
    {
      "buffer": 0,
      "byteOffset": 52392,
      "byteLength": 2240
    },
    {
      "buffer": 0,
      "byteOffset": 54632,
      "byteLength": 1028
    },
    {
      "buffer": 0,
      "byteOffset": 55660,
      "byteLength": 4112
    },
    {
      "buffer": 0,
      "byteOffset": 59772,
      "byteLength": 4112
    },
    {
      "buffer": 0,
      "byteOffset": 63884,
      "byteLength": 4112
    },
    {
      "buffer": 0,
      "byteOffset": 67996,
      "byteLength": 4112
    },
    {
      "buffer": 0,
      "byteOffset": 72108,
      "byteLength": 4112
    },
    {
      "buffer": 0,
      "byteOffset": 76220,
      "byteLength": 4112
    },
    {
      "buffer": 0,
      "byteOffset": 80332,
      "byteLength": 4112
    },
    {
      "buffer": 0,
      "byteOffset": 84444,
      "byteLength": 4112
    },
    {
      "buffer": 0,
      "byteOffset": 88556,
      "byteLength": 4112
    },
    {
      "buffer": 0,
      "byteOffset": 92668,
      "byteLength": 4112
    },
    {
      "buffer": 0,
      "byteOffset": 96780,
      "byteLength": 4112
    },
    {
      "buffer": 0,
      "byteOffset": 100892,
      "byteLength": 4112
    },
    {
      "buffer": 0,
      "byteOffset": 105004,
      "byteLength": 4112
    },
    {
      "buffer": 0,
      "byteOffset": 109116,
      "byteLength": 4112
    },
    {
      "buffer": 0,
      "byteOffset": 113228,
      "byteLength": 4112
    },
    {
      "buffer": 0,
      "byteOffset": 117340,
      "byteLength": 4112
    },
    {
      "buffer": 0,
      "byteOffset": 121452,
      "byteLength": 4112
    },
    {
      "buffer": 0,
      "byteOffset": 125564,
      "byteLength": 4112
    },
    {
      "buffer": 0,
      "byteOffset": 129676,
      "byteLength": 4112
    },
    {
      "buffer": 0,
      "byteOffset": 133788,
      "byteLength": 4112
    },
    {
      "buffer": 0,
      "byteOffset": 137900,
      "byteLength": 4112
    },
    {
      "buffer": 0,
      "byteOffset": 142012,
      "byteLength": 4112
    },
    {
      "buffer": 0,
      "byteOffset": 146124,
      "byteLength": 4112
    },
    {
      "buffer": 0,
      "byteOffset": 150236,
      "byteLength": 4112
    },
    {
      "buffer": 0,
      "byteOffset": 154348,
      "byteLength": 4112
    },
    {
      "buffer": 0,
      "byteOffset": 158460,
      "byteLength": 4112
    },
    {
      "buffer": 0,
      "byteOffset": 162572,
      "byteLength": 4112
    },
    {
      "buffer": 0,
      "byteOffset": 166684,
      "byteLength": 4112
    },
    {
      "buffer": 0,
      "byteOffset": 170796,
      "byteLength": 4112
    },
    {
      "buffer": 0,
      "byteOffset": 174908,
      "byteLength": 4112
    },
    {
      "buffer": 0,
      "byteOffset": 179020,
      "byteLength": 4112
    },
    {
      "buffer": 0,
      "byteOffset": 183132,
      "byteLength": 4112
    },
    {
      "buffer": 0,
      "byteOffset": 187244,
      "byteLength": 4112
    },
    {
      "buffer": 0,
      "byteOffset": 191356,
      "byteLength": 4112
    }
  ],
  "buffers": [
    {
      "byteLength": 195468,
      "uri": "data:application/octet-stream;base64,"
    }
  ],
  "animations": [
    {
      "name": "repos",
      "samplers": [
        {
          "input": 7,
          "interpolation": "LINEAR",
          "output": 8
        },
        {
          "input": 7,
          "interpolation": "LINEAR",
          "output": 9
        },
        {
          "input": 7,
          "interpolation": "LINEAR",
          "output": 10
        },
        {
          "input": 7,
          "interpolation": "LINEAR",
          "output": 11
        },
        {
          "input": 7,
          "interpolation": "LINEAR",
          "output": 12
        },
        {
          "input": 7,
          "interpolation": "LINEAR",
          "output": 13
        },
        {
          "input": 7,
          "interpolation": "LINEAR",
          "output": 14
        },
        {
          "input": 7,
          "interpolation": "LINEAR",
          "output": 15
        },
        {
          "input": 7,
          "interpolation": "LINEAR",
          "output": 16
        },
        {
          "input": 7,
          "interpolation": "LINEAR",
          "output": 17
        },
        {
          "input": 7,
          "interpolation": "LINEAR",
          "output": 18
        },
        {
          "input": 7,
          "interpolation": "LINEAR",
          "output": 19
        },
        {
          "input": 7,
          "interpolation": "LINEAR",
          "output": 20
        },
        {
          "input": 7,
          "interpolation": "LINEAR",
          "output": 21
        },
        {
          "input": 7,
          "interpolation": "LINEAR",
          "output": 22
        },
        {
          "input": 7,
          "interpolation": "LINEAR",
          "output": 23
        },
        {
          "input": 7,
          "interpolation": "LINEAR",
          "output": 24
        },
        {
          "input": 7,
          "interpolation": "LINEAR",
          "output": 25
        },
        {
          "input": 7,
          "interpolation": "LINEAR",
          "output": 26
        },
        {
          "input": 7,
          "interpolation": "LINEAR",
          "output": 27
        },
        {
          "input": 7,
          "interpolation": "LINEAR",
          "output": 28
        },
        {
          "input": 7,
          "interpolation": "LINEAR",
          "output": 29
        },
        {
          "input": 7,
          "interpolation": "LINEAR",
          "output": 30
        },
        {
          "input": 7,
          "interpolation": "LINEAR",
          "output": 31
        },
        {
          "input": 7,
          "interpolation": "LINEAR",
          "output": 32
        },
        {
          "input": 7,
          "interpolation": "LINEAR",
          "output": 33
        },
        {
          "input": 7,
          "interpolation": "LINEAR",
          "output": 34
        },
        {
          "input": 7,
          "interpolation": "LINEAR",
          "output": 35
        },
        {
          "input": 7,
          "interpolation": "LINEAR",
          "output": 36
        },
        {
          "input": 7,
          "interpolation": "LINEAR",
          "output": 37
        },
        {
          "input": 7,
          "interpolation": "LINEAR",
          "output": 38
        },
        {
          "input": 7,
          "interpolation": "LINEAR",
          "output": 39
        },
        {
          "input": 7,
          "interpolation": "LINEAR",
          "output": 40
        },
        {
          "input": 7,
          "interpolation": "LINEAR",
          "output": 41
        }
      ],
      "channels": [
        {
          "sampler": 0,
          "target": {
            "node": 2,
            "path": "rotation"
          }
        },
        {
          "sampler": 1,
          "target": {
            "node": 3,
            "path": "rotation"
          }
        },
        {
          "sampler": 2,
          "target": {
            "node": 4,
            "path": "rotation"
          }
        },
        {
          "sampler": 3,
          "target": {
            "node": 5,
            "path": "rotation"
          }
        },
        {
          "sampler": 4,
          "target": {
            "node": 6,
            "path": "rotation"
          }
        },
        {
          "sampler": 5,
          "target": {
            "node": 7,
            "path": "rotation"
          }
        },
        {
          "sampler": 6,
          "target": {
            "node": 8,
            "path": "rotation"
          }
        },
        {
          "sampler": 7,
          "target": {
            "node": 9,
            "path": "rotation"
          }
        },
        {
          "sampler": 8,
          "target": {
            "node": 10,
            "path": "rotation"
          }
        },
        {
          "sampler": 9,
          "target": {
            "node": 11,
            "path": "rotation"
          }
        },
        {
          "sampler": 10,
          "target": {
            "node": 12,
            "path": "rotation"
          }
        },
        {
          "sampler": 11,
          "target": {
            "node": 13,
            "path": "rotation"
          }
        },
        {
          "sampler": 12,
          "target": {
            "node": 14,
            "path": "rotation"
          }
        },
        {
          "sampler": 13,
          "target": {
            "node": 15,
            "path": "rotation"
          }
        },
        {
          "sampler": 14,
          "target": {
            "node": 16,
            "path": "rotation"
          }
        },
        {
          "sampler": 15,
          "target": {
            "node": 17,
            "path": "rotation"
          }
        },
        {
          "sampler": 16,
          "target": {
            "node": 18,
            "path": "rotation"
          }
        },
        {
          "sampler": 17,
          "target": {
            "node": 19,
            "path": "rotation"
          }
        },
        {
          "sampler": 18,
          "target": {
            "node": 20,
            "path": "rotation"
          }
        },
        {
          "sampler": 19,
          "target": {
            "node": 21,
            "path": "rotation"
          }
        },
        {
          "sampler": 20,
          "target": {
            "node": 22,
            "path": "rotation"
          }
        },
        {
          "sampler": 21,
          "target": {
            "node": 23,
            "path": "rotation"
          }
        },
        {
          "sampler": 22,
          "target": {
            "node": 24,
            "path": "rotation"
          }
        },
        {
          "sampler": 23,
          "target": {
            "node": 25,
            "path": "rotation"
          }
        },
        {
          "sampler": 24,
          "target": {
            "node": 26,
            "path": "rotation"
          }
        },
        {
          "sampler": 25,
          "target": {
            "node": 27,
            "path": "rotation"
          }
        },
        {
          "sampler": 26,
          "target": {
            "node": 28,
            "path": "rotation"
          }
        },
        {
          "sampler": 27,
          "target": {
            "node": 29,
            "path": "rotation"
          }
        },
        {
          "sampler": 28,
          "target": {
            "node": 30,
            "path": "rotation"
          }
        },
        {
          "sampler": 29,
          "target": {
            "node": 31,
            "path": "rotation"
          }
        },
        {
          "sampler": 30,
          "target": {
            "node": 32,
            "path": "rotation"
          }
        },
        {
          "sampler": 31,
          "target": {
            "node": 33,
            "path": "rotation"
          }
        },
        {
          "sampler": 32,
          "target": {
            "node": 34,
            "path": "rotation"
          }
        },
        {
          "sampler": 33,
          "target": {
            "node": 35,
            "path": "rotation"
          }
        }
      ]
    }
  ]
}