{
  "asset": {
    "version": "2.0",
    "generator": "Evolve tools/bestiaire/construire.py"
  },
  "scene": 0,
  "scenes": [
    {
      "nodes": [
        0
      ]
    }
  ],
  "nodes": [
    {
      "name": "mouflonTondu",
      "mesh": 0,
      "skin": 0,
      "children": [
        1
      ]
    },
    {
      "name": "racine",
      "translation": [
        0.0,
        -0.4640625,
        -0.140625
      ],
      "children": [
        2,
        3,
        4,
        5,
        6
      ]
    },
    {
      "name": "patteAVD",
      "translation": [
        -0.140625,
        0.39375,
        0.196875
      ]
    },
    {
      "name": "patteAVG",
      "translation": [
        0.140625,
        0.39375,
        0.196875
      ]
    },
    {
      "name": "patteARD",
      "translation": [
        -0.140625,
        0.39375,
        -0.19687500000000002
      ]
    },
    {
      "name": "patteARG",
      "translation": [
        0.140625,
        0.39375,
        -0.19687500000000002
      ]
    },
    {
      "name": "tete",
      "translation": [
        0.0,
        0.675,
        0.309375
      ]
    }
  ],
  "meshes": [
    {
      "name": "mouflonTondu",
      "primitives": [
        {
          "attributes": {
            "POSITION": 0,
            "NORMAL": 1,
            "TEXCOORD_0": 2,
            "JOINTS_0": 3,
            "WEIGHTS_0": 4
          },
          "indices": 5,
          "mode": 4
        }
      ]
    }
  ],
  "skins": [
    {
      "name": "squelette",
      "joints": [
        1,
        2,
        3,
        4,
        5,
        6
      ],
      "inverseBindMatrices": 6
    }
  ],
  "accessors": [
    {
      "bufferView": 0,
      "componentType": 5126,
      "count": 360,
      "type": "VEC3",
      "min": [
        -0.27,
        -0.4640625,
        -0.50625
      ],
      "max": [
        0.27,
        0.4640625,
        0.50625
      ]
    },
    {
      "bufferView": 1,
      "componentType": 5126,
      "count": 360,
      "type": "VEC3"
    },
    {
      "bufferView": 2,
      "componentType": 5126,
      "count": 360,
      "type": "VEC2"
    },
    {
      "bufferView": 3,
      "componentType": 5123,
      "count": 360,
      "type": "VEC4"
    },
    {
      "bufferView": 4,
      "componentType": 5126,
      "count": 360,
      "type": "VEC4"
    },
    {
      "bufferView": 5,
      "componentType": 5123,
      "count": 540,
      "type": "SCALAR"
    },
    {
      "bufferView": 6,
      "componentType": 5126,
      "count": 6,
      "type": "MAT4"
    },
    {
      "bufferView": 7,
      "componentType": 5126,
      "count": 33,
      "type": "SCALAR",
      "min": [
        0.0
      ],
      "max": [
        2.2222222222222223
      ]
    },
    {
      "bufferView": 8,
      "componentType": 5126,
      "count": 33,
      "type": "VEC4"
    },
    {
      "bufferView": 9,
      "componentType": 5126,
      "count": 33,
      "type": "VEC4"
    },
    {
      "bufferView": 10,
      "componentType": 5126,
      "count": 33,
      "type": "VEC4"
    },
    {
      "bufferView": 11,
      "componentType": 5126,
      "count": 33,
      "type": "VEC4"
    },
    {
      "bufferView": 12,
      "componentType": 5126,
      "count": 33,
      "type": "VEC4"
    }
  ],
  "bufferViews": [
    {
      "buffer": 0,
      "byteOffset": 0,
      "byteLength": 4320
    },
    {
      "buffer": 0,
      "byteOffset": 4320,
      "byteLength": 4320
    },
    {
      "buffer": 0,
      "byteOffset": 8640,
      "byteLength": 2880
    },
    {
      "buffer": 0,
      "byteOffset": 11520,
      "byteLength": 2880
    },
    {
      "buffer": 0,
      "byteOffset": 14400,
      "byteLength": 5760
    },
    {
      "buffer": 0,
      "byteOffset": 20160,
      "byteLength": 1080
    },
    {
      "buffer": 0,
      "byteOffset": 21240,
      "byteLength": 384
    },
    {
      "buffer": 0,
      "byteOffset": 21624,
      "byteLength": 132
    },
    {
      "buffer": 0,
      "byteOffset": 21756,
      "byteLength": 528
    },
    {
      "buffer": 0,
      "byteOffset": 22284,
      "byteLength": 528
    },
    {
      "buffer": 0,
      "byteOffset": 22812,
      "byteLength": 528
    },
    {
      "buffer": 0,
      "byteOffset": 23340,
      "byteLength": 528
    },
    {
      "buffer": 0,
      "byteOffset": 23868,
      "byteLength": 528
    }
  ],
  "buffers": [
    {
      "byteLength": 24396,
      "uri": "data:application/octet-stream;base64,"
    }
  ],
  "animations": [
    {
      "name": "repos",
      "samplers": [
        {
          "input": 7,
          "interpolation": "LINEAR",
          "output": 8
        },
        {
          "input": 7,
          "interpolation": "LINEAR",
          "output": 9
        },
        {
          "input": 7,
          "interpolation": "LINEAR",
          "output": 10
        },
        {
          "input": 7,
          "interpolation": "LINEAR",
          "output": 11
        },
        {
          "input": 7,
          "interpolation": "LINEAR",
          "output": 12
        }
      ],
      "channels": [
        {
          "sampler": 0,
          "target": {
            "node": 2,
            "path": "rotation"
          }
        },
        {
          "sampler": 1,
          "target": {
            "node": 3,
            "path": "rotation"
          }
        },
        {
          "sampler": 2,
          "target": {
            "node": 4,
            "path": "rotation"
          }
        },
        {
          "sampler": 3,
          "target": {
            "node": 5,
            "path": "rotation"
          }
        },
        {
          "sampler": 4,
          "target": {
            "node": 6,
            "path": "rotation"
          }
        }
      ]
    }
  ]
}