{
  "asset": {
    "version": "2.0",
    "generator": "Evolve tools/bestiaire/construire.py"
  },
  "scene": 0,
  "scenes": [
    {
      "nodes": [
        0
      ]
    }
  ],
  "nodes": [
    {
      "name": "mouflon",
      "mesh": 0,
      "skin": 0,
      "children": [
        1
      ]
    },
    {
      "name": "racine",
      "translation": [
        0.0,
        -0.50625,
        -0.140625
      ],
      "children": [
        2,
        3,
        4,
        5,
        6
      ]
    },
    {
      "name": "patteAVD",
      "translation": [
        -0.16875,
        0.39375,
        0.225
      ]
    },
    {
      "name": "patteAVG",
      "translation": [
        0.16875,
        0.39375,
        0.225
      ]
    },
    {
      "name": "patteARD",
      "translation": [
        -0.16875,
        0.39375,
        -0.22500000000000003
      ]
    },
    {
      "name": "patteARG",
      "translation": [
        0.16875,
        0.39375,
        -0.22500000000000003
      ]
    },
    {
      "name": "tete",
      "translation": [
        0.0,
        0.73125,
        0.365625
      ]
    }
  ],
  "meshes": [
    {
      "name": "mouflon",
      "primitives": [
        {
          "attributes": {
            "POSITION": 0,
            "NORMAL": 1,
            "TEXCOORD_0": 2,
            "JOINTS_0": 3,
            "WEIGHTS_0": 4
          },
          "indices": 5,
          "mode": 4
        }
      ]
    }
  ],
  "skins": [
    {
      "name": "squelette",
      "joints": [
        1,
        2,
        3,
        4,
        5,
        6
      ],
      "inverseBindMatrices": 6
    }
  ],
  "accessors": [
    {
      "bufferView": 0,
      "componentType": 5126,
      "count": 384,
      "type": "VEC3",
      "min": [
        -0.28125,
        -0.50625,
        -0.5625
      ],
      "max": [
        0.28125,
        0.50625,
        0.5625
      ]
    },
    {
      "bufferView": 1,
      "componentType": 5126,
      "count": 384,
      "type": "VEC3"
    },
    {
      "bufferView": 2,
      "componentType": 5126,
      "count": 384,
      "type": "VEC2"
    },
    {
      "bufferView": 3,
      "componentType": 5123,
      "count": 384,
      "type": "VEC4"
    },
    {
      "bufferView": 4,
      "componentType": 5126,
      "count": 384,
      "type": "VEC4"
    },
    {
      "bufferView": 5,
      "componentType": 5123,
      "count": 576,
      "type": "SCALAR"
    },
    {
      "bufferView": 6,
      "componentType": 5126,
      "count": 6,
      "type": "MAT4"
    },
    {
      "bufferView": 7,
      "componentType": 5126,
      "count": 17,
      "type": "SCALAR",
      "min": [
        0.0
      ],
      "max": [
        2.2222222222222223
      ]
    },
    {
      "bufferView": 8,
      "componentType": 5126,
      "count": 17,
      "type": "VEC4"
    },
    {
      "bufferView": 9,
      "componentType": 5126,
      "count": 17,
      "type": "VEC4"
    },
    {
      "bufferView": 10,
      "componentType": 5126,
      "count": 17,
      "type": "VEC4"
    },
    {
      "bufferView": 11,
      "componentType": 5126,
      "count": 17,
      "type": "VEC4"
    },
    {
      "bufferView": 12,
      "componentType": 5126,
      "count": 17,
      "type": "VEC4"
    }
  ],
  "bufferViews": [
    {
      "buffer": 0,
      "byteOffset": 0,
      "byteLength": 4608
    },
    {
      "buffer": 0,
      "byteOffset": 4608,
      "byteLength": 4608
    },
    {
      "buffer": 0,
      "byteOffset": 9216,
      "byteLength": 3072
    },
    {
      "buffer": 0,
      "byteOffset": 12288,
      "byteLength": 3072
    },
    {
      "buffer": 0,
      "byteOffset": 15360,
      "byteLength": 6144
    },
    {
      "buffer": 0,
      "byteOffset": 21504,
      "byteLength": 1152
    },
    {
      "buffer": 0,
      "byteOffset": 22656,
      "byteLength": 384
    },
    {
      "buffer": 0,
      "byteOffset": 23040,
      "byteLength": 68
    },
    {
      "buffer": 0,
      "byteOffset": 23108,
      "byteLength": 272
    },
    {
      "buffer": 0,
      "byteOffset": 23380,
      "byteLength": 272
    },
    {
      "buffer": 0,
      "byteOffset": 23652,
      "byteLength": 272
    },
    {
      "buffer": 0,
      "byteOffset": 23924,
      "byteLength": 272
    },
    {
      "buffer": 0,
      "byteOffset": 24196,
      "byteLength": 272
    }
  ],
  "buffers": [
    {
      "byteLength": 24468,
      "uri": "data:application/octet-stream;base64,"
    }
  ],
  "animations": [
    {
      "name": "repos",
      "samplers": [
        {
          "input": 7,
          "interpolation": "LINEAR",
          "output": 8
        },
        {
          "input": 7,
          "interpolation": "LINEAR",
          "output": 9
        },
        {
          "input": 7,
          "interpolation": "LINEAR",
          "output": 10
        },
        {
          "input": 7,
          "interpolation": "LINEAR",
          "output": 11
        },
        {
          "input": 7,
          "interpolation": "LINEAR",
          "output": 12
        }
      ],
      "channels": [
        {
          "sampler": 0,
          "target": {
            "node": 2,
            "path": "rotation"
          }
        },
        {
          "sampler": 1,
          "target": {
            "node": 3,
            "path": "rotation"
          }
        },
        {
          "sampler": 2,
          "target": {
            "node": 4,
            "path": "rotation"
          }
        },
        {
          "sampler": 3,
          "target": {
            "node": 5,
            "path": "rotation"
          }
        },
        {
          "sampler": 4,
          "target": {
            "node": 6,
            "path": "rotation"
          }
        }
      ]
    }
  ]
}