{
  "asset": {
    "version": "2.0",
    "generator": "Evolve tools/bestiaire/construire.py"
  },
  "scene": 0,
  "scenes": [
    {
      "nodes": [
        0
      ]
    }
  ],
  "nodes": [
    {
      "name": "ours",
      "mesh": 0,
      "skin": 0,
      "children": [
        1
      ]
    },
    {
      "name": "racine",
      "translation": [
        0.0,
        -0.675,
        -0.2671875
      ],
      "children": [
        2,
        3,
        4,
        5,
        6
      ]
    },
    {
      "name": "patteAVD",
      "translation": [
        -0.253125,
        0.5062500000000001,
        0.39375000000000004
      ]
    },
    {
      "name": "patteAVG",
      "translation": [
        0.253125,
        0.5062500000000001,
        0.39375000000000004
      ]
    },
    {
      "name": "patteARD",
      "translation": [
        -0.253125,
        0.5062500000000001,
        -0.39375000000000004
      ]
    },
    {
      "name": "patteARG",
      "translation": [
        0.253125,
        0.5062500000000001,
        -0.39375000000000004
      ]
    },
    {
      "name": "tete",
      "translation": [
        0.0,
        0.95625,
        0.5625
      ]
    }
  ],
  "meshes": [
    {
      "name": "ours",
      "primitives": [
        {
          "attributes": {
            "POSITION": 0,
            "NORMAL": 1,
            "TEXCOORD_0": 2,
            "JOINTS_0": 3,
            "WEIGHTS_0": 4
          },
          "indices": 5,
          "mode": 4
        }
      ]
    }
  ],
  "skins": [
    {
      "name": "squelette",
      "joints": [
        1,
        2,
        3,
        4,
        5,
        6
      ],
      "inverseBindMatrices": 6
    }
  ],
  "accessors": [
    {
      "bufferView": 0,
      "componentType": 5126,
      "count": 264,
      "type": "VEC3",
      "min": [
        -0.39375,
        -0.675,
        -0.9140625
      ],
      "max": [
        0.39375,
        0.675,
        0.9140625
      ]
    },
    {
      "bufferView": 1,
      "componentType": 5126,
      "count": 264,
      "type": "VEC3"
    },
    {
      "bufferView": 2,
      "componentType": 5126,
      "count": 264,
      "type": "VEC2"
    },
    {
      "bufferView": 3,
      "componentType": 5123,
      "count": 264,
      "type": "VEC4"
    },
    {
      "bufferView": 4,
      "componentType": 5126,
      "count": 264,
      "type": "VEC4"
    },
    {
      "bufferView": 5,
      "componentType": 5123,
      "count": 396,
      "type": "SCALAR"
    },
    {
      "bufferView": 6,
      "componentType": 5126,
      "count": 6,
      "type": "MAT4"
    },
    {
      "bufferView": 7,
      "componentType": 5126,
      "count": 225,
      "type": "SCALAR",
      "min": [
        0.0
      ],
      "max": [
        22.22222222222222
      ]
    },
    {
      "bufferView": 8,
      "componentType": 5126,
      "count": 225,
      "type": "VEC4"
    },
    {
      "bufferView": 9,
      "componentType": 5126,
      "count": 225,
      "type": "VEC4"
    },
    {
      "bufferView": 10,
      "componentType": 5126,
      "count": 225,
      "type": "VEC4"
    },
    {
      "bufferView": 11,
      "componentType": 5126,
      "count": 225,
      "type": "VEC4"
    },
    {
      "bufferView": 12,
      "componentType": 5126,
      "count": 225,
      "type": "VEC4"
    }
  ],
  "bufferViews": [
    {
      "buffer": 0,
      "byteOffset": 0,
      "byteLength": 3168
    },
    {
      "buffer": 0,
      "byteOffset": 3168,
      "byteLength": 3168
    },
    {
      "buffer": 0,
      "byteOffset": 6336,
      "byteLength": 2112
    },
    {
      "buffer": 0,
      "byteOffset": 8448,
      "byteLength": 2112
    },
    {
      "buffer": 0,
      "byteOffset": 10560,
      "byteLength": 4224
    },
    {
      "buffer": 0,
      "byteOffset": 14784,
      "byteLength": 792
    },
    {
      "buffer": 0,
      "byteOffset": 15576,
      "byteLength": 384
    },
    {
      "buffer": 0,
      "byteOffset": 15960,
      "byteLength": 900
    },
    {
      "buffer": 0,
      "byteOffset": 16860,
      "byteLength": 3600
    },
    {
      "buffer": 0,
      "byteOffset": 20460,
      "byteLength": 3600
    },
    {
      "buffer": 0,
      "byteOffset": 24060,
      "byteLength": 3600
    },
    {
      "buffer": 0,
      "byteOffset": 27660,
      "byteLength": 3600
    },
    {
      "buffer": 0,
      "byteOffset": 31260,
      "byteLength": 3600
    }
  ],
  "buffers": [
    {
      "byteLength": 34860,
      "uri": "data:application/octet-stream;base64,"
    }
  ],
  "animations": [
    {
      "name": "repos",
      "samplers": [
        {
          "input": 7,
          "interpolation": "LINEAR",
          "output": 8
        },
        {
          "input": 7,
          "interpolation": "LINEAR",
          "output": 9
        },
        {
          "input": 7,
          "interpolation": "LINEAR",
          "output": 10
        },
        {
          "input": 7,
          "interpolation": "LINEAR",
          "output": 11
        },
        {
          "input": 7,
          "interpolation": "LINEAR",
          "output": 12
        }
      ],
      "channels": [
        {
          "sampler": 0,
          "target": {
            "node": 2,
            "path": "rotation"
          }
        },
        {
          "sampler": 1,
          "target": {
            "node": 3,
            "path": "rotation"
          }
        },
        {
          "sampler": 2,
          "target": {
            "node": 4,
            "path": "rotation"
          }
        },
        {
          "sampler": 3,
          "target": {
            "node": 5,
            "path": "rotation"
          }
        },
        {
          "sampler": 4,
          "target": {
            "node": 6,
            "path": "rotation"
          }
        }
      ]
    }
  ]
}