{
  "asset": {
    "version": "2.0",
    "generator": "Evolve tools/bestiaire/construire.py"
  },
  "scene": 0,
  "scenes": [
    {
      "nodes": [
        0
      ]
    }
  ],
  "nodes": [
    {
      "name": "rampant",
      "mesh": 0,
      "skin": 0,
      "children": [
        1
      ]
    },
    {
      "name": "racine",
      "translation": [
        0.0,
        -0.5049681541604051,
        -0.021544280763806357
      ],
      "children": [
        2,
        3,
        4,
        5,
        6
      ]
    },
    {
      "name": "tete",
      "translation": [
        0.0,
        0.84375,
        0.3375
      ],
      "rotation": [
        0.08715574274765817,
        0.0,
        0.0,
        0.9961946980917455
      ]
    },
    {
      "name": "brasD",
      "translation": [
        -0.253125,
        0.84375,
        0.225
      ],
      "rotation": [
        -0.13020823697602701,
        -0.009105046900518679,
        -0.06915969744117016,
        0.9890297515213483
      ]
    },
    {
      "name": "brasG",
      "translation": [
        0.253125,
        0.84375,
        0.225
      ],
      "rotation": [
        -0.13020823697602701,
        0.009105046900518679,
        0.06915969744117016,
        0.9890297515213483
      ]
    },
    {
      "name": "cuisseD",
      "translation": [
        -0.196875,
        0.6468750000000001,
        -0.39375
      ],
      "rotation": [
        0.3420201433256687,
        0.0,
        0.0,
        0.9396926207859083
      ]
    },
    {
      "name": "cuisseG",
      "translation": [
        0.196875,
        0.6468750000000001,
        -0.39375
      ],
      "rotation": [
        0.3420201433256687,
        0.0,
        0.0,
        0.9396926207859083
      ]
    }
  ],
  "meshes": [
    {
      "name": "rampant",
      "primitives": [
        {
          "attributes": {
            "POSITION": 0,
            "NORMAL": 1,
            "TEXCOORD_0": 2,
            "JOINTS_0": 3,
            "WEIGHTS_0": 4
          },
          "indices": 5,
          "mode": 4
        }
      ]
    }
  ],
  "skins": [
    {
      "name": "squelette",
      "joints": [
        1,
        2,
        3,
        4,
        5,
        6
      ],
      "inverseBindMatrices": 6
    }
  ],
  "accessors": [
    {
      "bufferView": 0,
      "componentType": 5126,
      "count": 264,
      "type": "VEC3",
      "min": [
        -0.4580204156996271,
        -0.5288456563786255,
        -0.733026901966045
      ],
      "max": [
        0.4580204156996271,
        0.5049681541604051,
        0.733026901966045
      ]
    },
    {
      "bufferView": 1,
      "componentType": 5126,
      "count": 264,
      "type": "VEC3"
    },
    {
      "bufferView": 2,
      "componentType": 5126,
      "count": 264,
      "type": "VEC2"
    },
    {
      "bufferView": 3,
      "componentType": 5123,
      "count": 264,
      "type": "VEC4"
    },
    {
      "bufferView": 4,
      "componentType": 5126,
      "count": 264,
      "type": "VEC4"
    },
    {
      "bufferView": 5,
      "componentType": 5123,
      "count": 396,
      "type": "SCALAR"
    },
    {
      "bufferView": 6,
      "componentType": 5126,
      "count": 6,
      "type": "MAT4"
    },
    {
      "bufferView": 7,
      "componentType": 5126,
      "count": 113,
      "type": "SCALAR",
      "min": [
        0.0
      ],
      "max": [
        11.11111111111111
      ]
    },
    {
      "bufferView": 8,
      "componentType": 5126,
      "count": 113,
      "type": "VEC4"
    },
    {
      "bufferView": 9,
      "componentType": 5126,
      "count": 113,
      "type": "VEC4"
    },
    {
      "bufferView": 10,
      "componentType": 5126,
      "count": 113,
      "type": "VEC4"
    },
    {
      "bufferView": 11,
      "componentType": 5126,
      "count": 113,
      "type": "VEC4"
    },
    {
      "bufferView": 12,
      "componentType": 5126,
      "count": 113,
      "type": "VEC4"
    }
  ],
  "bufferViews": [
    {
      "buffer": 0,
      "byteOffset": 0,
      "byteLength": 3168
    },
    {
      "buffer": 0,
      "byteOffset": 3168,
      "byteLength": 3168
    },
    {
      "buffer": 0,
      "byteOffset": 6336,
      "byteLength": 2112
    },
    {
      "buffer": 0,
      "byteOffset": 8448,
      "byteLength": 2112
    },
    {
      "buffer": 0,
      "byteOffset": 10560,
      "byteLength": 4224
    },
    {
      "buffer": 0,
      "byteOffset": 14784,
      "byteLength": 792
    },
    {
      "buffer": 0,
      "byteOffset": 15576,
      "byteLength": 384
    },
    {
      "buffer": 0,
      "byteOffset": 15960,
      "byteLength": 452
    },
    {
      "buffer": 0,
      "byteOffset": 16412,
      "byteLength": 1808
    },
    {
      "buffer": 0,
      "byteOffset": 18220,
      "byteLength": 1808
    },
    {
      "buffer": 0,
      "byteOffset": 20028,
      "byteLength": 1808
    },
    {
      "buffer": 0,
      "byteOffset": 21836,
      "byteLength": 1808
    },
    {
      "buffer": 0,
      "byteOffset": 23644,
      "byteLength": 1808
    }
  ],
  "buffers": [
    {
      "byteLength": 25452,
      "uri": "data:application/octet-stream;base64,"
    }
  ],
  "animations": [
    {
      "name": "repos",
      "samplers": [
        {
          "input": 7,
          "interpolation": "LINEAR",
          "output": 8
        },
        {
          "input": 7,
          "interpolation": "LINEAR",
          "output": 9
        },
        {
          "input": 7,
          "interpolation": "LINEAR",
          "output": 10
        },
        {
          "input": 7,
          "interpolation": "LINEAR",
          "output": 11
        },
        {
          "input": 7,
          "interpolation": "LINEAR",
          "output": 12
        }
      ],
      "channels": [
        {
          "sampler": 0,
          "target": {
            "node": 2,
            "path": "rotation"
          }
        },
        {
          "sampler": 1,
          "target": {
            "node": 3,
            "path": "rotation"
          }
        },
        {
          "sampler": 2,
          "target": {
            "node": 4,
            "path": "rotation"
          }
        },
        {
          "sampler": 3,
          "target": {
            "node": 5,
            "path": "rotation"
          }
        },
        {
          "sampler": 4,
          "target": {
            "node": 6,
            "path": "rotation"
          }
        }
      ]
    }
  ]
}