{
  "asset": {
    "version": "2.0",
    "generator": "Evolve tools/bestiaire/construire.py"
  },
  "scene": 0,
  "scenes": [
    {
      "nodes": [
        0
      ]
    }
  ],
  "nodes": [
    {
      "name": "sanglier",
      "mesh": 0,
      "skin": 0,
      "children": [
        1
      ]
    },
    {
      "name": "racine",
      "translation": [
        0.0,
        -0.4690638627347978,
        -0.2246053158626573
      ],
      "children": [
        2,
        3,
        4,
        5,
        6,
        7
      ]
    },
    {
      "name": "patteAVD",
      "translation": [
        -0.196875,
        0.28125,
        0.225
      ]
    },
    {
      "name": "patteAVG",
      "translation": [
        0.196875,
        0.28125,
        0.225
      ]
    },
    {
      "name": "patteARD",
      "translation": [
        -0.196875,
        0.28125,
        -0.3374999999999999
      ]
    },
    {
      "name": "patteARG",
      "translation": [
        0.196875,
        0.28125,
        -0.3374999999999999
      ]
    },
    {
      "name": "tete",
      "translation": [
        0.0,
        0.590625,
        0.39375000000000004
      ],
      "rotation": [
        0.20791169081775934,
        0.0,
        0.0,
        0.9781476007338056
      ]
    },
    {
      "name": "queue",
      "translation": [
        0.0,
        0.675,
        -0.44999999999999996
      ],
      "rotation": [
        0.17364817766693036,
        0.0,
        0.0,
        0.984807753012208
      ]
    }
  ],
  "meshes": [
    {
      "name": "sanglier",
      "primitives": [
        {
          "attributes": {
            "POSITION": 0,
            "NORMAL": 1,
            "TEXCOORD_0": 2,
            "JOINTS_0": 3,
            "WEIGHTS_0": 4
          },
          "indices": 5,
          "mode": 4
        }
      ]
    }
  ],
  "skins": [
    {
      "name": "squelette",
      "joints": [
        1,
        2,
        3,
        4,
        5,
        6,
        7
      ],
      "inverseBindMatrices": 6
    }
  ],
  "accessors": [
    {
      "bufferView": 0,
      "componentType": 5126,
      "count": 384,
      "type": "VEC3",
      "min": [
        -0.309375,
        -0.4690638627347978,
        -0.7972273361326053
      ],
      "max": [
        0.309375,
        0.4690638627347978,
        0.7972273361326053
      ]
    },
    {
      "bufferView": 1,
      "componentType": 5126,
      "count": 384,
      "type": "VEC3"
    },
    {
      "bufferView": 2,
      "componentType": 5126,
      "count": 384,
      "type": "VEC2"
    },
    {
      "bufferView": 3,
      "componentType": 5123,
      "count": 384,
      "type": "VEC4"
    },
    {
      "bufferView": 4,
      "componentType": 5126,
      "count": 384,
      "type": "VEC4"
    },
    {
      "bufferView": 5,
      "componentType": 5123,
      "count": 576,
      "type": "SCALAR"
    },
    {
      "bufferView": 6,
      "componentType": 5126,
      "count": 7,
      "type": "MAT4"
    },
    {
      "bufferView": 7,
      "componentType": 5126,
      "count": 129,
      "type": "SCALAR",
      "min": [
        0.0
      ],
      "max": [
        5.555555555555555
      ]
    },
    {
      "bufferView": 8,
      "componentType": 5126,
      "count": 129,
      "type": "VEC4"
    },
    {
      "bufferView": 9,
      "componentType": 5126,
      "count": 129,
      "type": "VEC4"
    },
    {
      "bufferView": 10,
      "componentType": 5126,
      "count": 129,
      "type": "VEC4"
    },
    {
      "bufferView": 11,
      "componentType": 5126,
      "count": 129,
      "type": "VEC4"
    },
    {
      "bufferView": 12,
      "componentType": 5126,
      "count": 129,
      "type": "VEC4"
    },
    {
      "bufferView": 13,
      "componentType": 5126,
      "count": 129,
      "type": "VEC4"
    }
  ],
  "bufferViews": [
    {
      "buffer": 0,
      "byteOffset": 0,
      "byteLength": 4608
    },
    {
      "buffer": 0,
      "byteOffset": 4608,
      "byteLength": 4608
    },
    {
      "buffer": 0,
      "byteOffset": 9216,
      "byteLength": 3072
    },
    {
      "buffer": 0,
      "byteOffset": 12288,
      "byteLength": 3072
    },
    {
      "buffer": 0,
      "byteOffset": 15360,
      "byteLength": 6144
    },
    {
      "buffer": 0,
      "byteOffset": 21504,
      "byteLength": 1152
    },
    {
      "buffer": 0,
      "byteOffset": 22656,
      "byteLength": 448
    },
    {
      "buffer": 0,
      "byteOffset": 23104,
      "byteLength": 516
    },
    {
      "buffer": 0,
      "byteOffset": 23620,
      "byteLength": 2064
    },
    {
      "buffer": 0,
      "byteOffset": 25684,
      "byteLength": 2064
    },
    {
      "buffer": 0,
      "byteOffset": 27748,
      "byteLength": 2064
    },
    {
      "buffer": 0,
      "byteOffset": 29812,
      "byteLength": 2064
    },
    {
      "buffer": 0,
      "byteOffset": 31876,
      "byteLength": 2064
    },
    {
      "buffer": 0,
      "byteOffset": 33940,
      "byteLength": 2064
    }
  ],
  "buffers": [
    {
      "byteLength": 36004,
      "uri": "data:application/octet-stream;base64,"
    }
  ],
  "animations": [
    {
      "name": "repos",
      "samplers": [
        {
          "input": 7,
          "interpolation": "LINEAR",
          "output": 8
        },
        {
          "input": 7,
          "interpolation": "LINEAR",
          "output": 9
        },
        {
          "input": 7,
          "interpolation": "LINEAR",
          "output": 10
        },
        {
          "input": 7,
          "interpolation": "LINEAR",
          "output": 11
        },
        {
          "input": 7,
          "interpolation": "LINEAR",
          "output": 12
        },
        {
          "input": 7,
          "interpolation": "LINEAR",
          "output": 13
        }
      ],
      "channels": [
        {
          "sampler": 0,
          "target": {
            "node": 2,
            "path": "rotation"
          }
        },
        {
          "sampler": 1,
          "target": {
            "node": 3,
            "path": "rotation"
          }
        },
        {
          "sampler": 2,
          "target": {
            "node": 4,
            "path": "rotation"
          }
        },
        {
          "sampler": 3,
          "target": {
            "node": 5,
            "path": "rotation"
          }
        },
        {
          "sampler": 4,
          "target": {
            "node": 6,
            "path": "rotation"
          }
        },
        {
          "sampler": 5,
          "target": {
            "node": 7,
            "path": "rotation"
          }
        }
      ]
    }
  ]
}