{
  "asset": {
    "version": "2.0",
    "generator": "Evolve tools/bestiaire/construire.py"
  },
  "scene": 0,
  "scenes": [
    {
      "nodes": [
        0
      ]
    }
  ],
  "nodes": [
    {
      "name": "treant",
      "mesh": 0,
      "skin": 0,
      "children": [
        1
      ]
    },
    {
      "name": "racine",
      "translation": [
        0.01169503260849898,
        -1.4625000000000001,
        -0.028125
      ],
      "children": [
        2,
        3,
        4,
        5
      ]
    },
    {
      "name": "racineD",
      "translation": [
        -0.253125,
        0.7875000000000001,
        0.0
      ]
    },
    {
      "name": "racineG",
      "translation": [
        0.25312500000000004,
        0.7875000000000001,
        0.0
      ]
    },
    {
      "name": "brasD",
      "translation": [
        -0.534375,
        2.0250000000000004,
        0.0
      ],
      "rotation": [
        -0.06937434048221469,
        -0.0072915370034438345,
        -0.10427383718471567,
        0.9920992900156519
      ]
    },
    {
      "name": "brasG",
      "translation": [
        0.5343749999999999,
        2.0250000000000004,
        0.0
      ],
      "rotation": [
        -0.06937434048221469,
        0.0072915370034438345,
        0.10427383718471567,
        0.9920992900156519
      ]
    }
  ],
  "meshes": [
    {
      "name": "treant",
      "primitives": [
        {
          "attributes": {
            "POSITION": 0,
            "NORMAL": 1,
            "TEXCOORD_0": 2,
            "JOINTS_0": 3,
            "WEIGHTS_0": 4
          },
          "indices": 5,
          "mode": 4
        }
      ]
    }
  ],
  "skins": [
    {
      "name": "squelette",
      "joints": [
        1,
        2,
        3,
        4,
        5
      ],
      "inverseBindMatrices": 6
    }
  ],
  "accessors": [
    {
      "bufferView": 0,
      "componentType": 5126,
      "count": 648,
      "type": "VEC3",
      "min": [
        -1.137889514942142,
        -1.4625000000000001,
        -0.39375
      ],
      "max": [
        1.137889514942142,
        1.4625000000000001,
        0.39375
      ]
    },
    {
      "bufferView": 1,
      "componentType": 5126,
      "count": 648,
      "type": "VEC3"
    },
    {
      "bufferView": 2,
      "componentType": 5126,
      "count": 648,
      "type": "VEC2"
    },
    {
      "bufferView": 3,
      "componentType": 5123,
      "count": 648,
      "type": "VEC4"
    },
    {
      "bufferView": 4,
      "componentType": 5126,
      "count": 648,
      "type": "VEC4"
    },
    {
      "bufferView": 5,
      "componentType": 5123,
      "count": 972,
      "type": "SCALAR"
    },
    {
      "bufferView": 6,
      "componentType": 5126,
      "count": 5,
      "type": "MAT4"
    },
    {
      "bufferView": 7,
      "componentType": 5126,
      "count": 113,
      "type": "SCALAR",
      "min": [
        0.0
      ],
      "max": [
        22.22222222222222
      ]
    },
    {
      "bufferView": 8,
      "componentType": 5126,
      "count": 113,
      "type": "VEC4"
    },
    {
      "bufferView": 9,
      "componentType": 5126,
      "count": 113,
      "type": "VEC4"
    },
    {
      "bufferView": 10,
      "componentType": 5126,
      "count": 113,
      "type": "VEC4"
    },
    {
      "bufferView": 11,
      "componentType": 5126,
      "count": 113,
      "type": "VEC4"
    }
  ],
  "bufferViews": [
    {
      "buffer": 0,
      "byteOffset": 0,
      "byteLength": 7776
    },
    {
      "buffer": 0,
      "byteOffset": 7776,
      "byteLength": 7776
    },
    {
      "buffer": 0,
      "byteOffset": 15552,
      "byteLength": 5184
    },
    {
      "buffer": 0,
      "byteOffset": 20736,
      "byteLength": 5184
    },
    {
      "buffer": 0,
      "byteOffset": 25920,
      "byteLength": 10368
    },
    {
      "buffer": 0,
      "byteOffset": 36288,
      "byteLength": 1944
    },
    {
      "buffer": 0,
      "byteOffset": 38232,
      "byteLength": 320
    },
    {
      "buffer": 0,
      "byteOffset": 38552,
      "byteLength": 452
    },
    {
      "buffer": 0,
      "byteOffset": 39004,
      "byteLength": 1808
    },
    {
      "buffer": 0,
      "byteOffset": 40812,
      "byteLength": 1808
    },
    {
      "buffer": 0,
      "byteOffset": 42620,
      "byteLength": 1808
    },
    {
      "buffer": 0,
      "byteOffset": 44428,
      "byteLength": 1808
    }
  ],
  "buffers": [
    {
      "byteLength": 46236,
      "uri": "data:application/octet-stream;base64,"
    }
  ],
  "animations": [
    {
      "name": "repos",
      "samplers": [
        {
          "input": 7,
          "interpolation": "LINEAR",
          "output": 8
        },
        {
          "input": 7,
          "interpolation": "LINEAR",
          "output": 9
        },
        {
          "input": 7,
          "interpolation": "LINEAR",
          "output": 10
        },
        {
          "input": 7,
          "interpolation": "LINEAR",
          "output": 11
        }
      ],
      "channels": [
        {
          "sampler": 0,
          "target": {
            "node": 2,
            "path": "rotation"
          }
        },
        {
          "sampler": 1,
          "target": {
            "node": 3,
            "path": "rotation"
          }
        },
        {
          "sampler": 2,
          "target": {
            "node": 4,
            "path": "rotation"
          }
        },
        {
          "sampler": 3,
          "target": {
            "node": 5,
            "path": "rotation"
          }
        }
      ]
    }
  ]
}