{
  "asset": {
    "version": "2.0",
    "generator": "Evolve tools/bestiaire/construire.py"
  },
  "scene": 0,
  "scenes": [
    {
      "nodes": [
        0
      ]
    }
  ],
  "nodes": [
    {
      "name": "vache",
      "mesh": 0,
      "skin": 0,
      "children": [
        1
      ]
    },
    {
      "name": "racine",
      "translation": [
        0.0,
        -0.712914643444312,
        -0.1462635455281194
      ],
      "children": [
        2,
        3,
        4,
        5,
        6,
        7
      ]
    },
    {
      "name": "patteAVD",
      "translation": [
        -0.225,
        0.61875,
        0.365625
      ]
    },
    {
      "name": "patteAVG",
      "translation": [
        0.225,
        0.61875,
        0.365625
      ]
    },
    {
      "name": "patteARD",
      "translation": [
        -0.225,
        0.61875,
        -0.3656250000000001
      ]
    },
    {
      "name": "patteARG",
      "translation": [
        0.225,
        0.61875,
        -0.3656250000000001
      ]
    },
    {
      "name": "tete",
      "translation": [
        0.0,
        1.06875,
        0.50625
      ]
    },
    {
      "name": "queue",
      "translation": [
        0.0,
        1.125,
        -0.5062500000000001
      ],
      "rotation": [
        0.06975647374412529,
        0.0,
        0.0,
        0.9975640502598243
      ]
    }
  ],
  "meshes": [
    {
      "name": "vache",
      "primitives": [
        {
          "attributes": {
            "POSITION": 0,
            "NORMAL": 1,
            "TEXCOORD_0": 2,
            "JOINTS_0": 3,
            "WEIGHTS_0": 4
          },
          "indices": 5,
          "mode": 4
        }
      ]
    }
  ],
  "skins": [
    {
      "name": "squelette",
      "joints": [
        1,
        2,
        3,
        4,
        5,
        6,
        7
      ],
      "inverseBindMatrices": 6
    }
  ],
  "accessors": [
    {
      "bufferView": 0,
      "componentType": 5126,
      "count": 336,
      "type": "VEC3",
      "min": [
        -0.3375,
        -0.712914643444312,
        -0.8099864544718806
      ],
      "max": [
        0.3375,
        0.712914643444312,
        0.8099864544718806
      ]
    },
    {
      "bufferView": 1,
      "componentType": 5126,
      "count": 336,
      "type": "VEC3"
    },
    {
      "bufferView": 2,
      "componentType": 5126,
      "count": 336,
      "type": "VEC2"
    },
    {
      "bufferView": 3,
      "componentType": 5123,
      "count": 336,
      "type": "VEC4"
    },
    {
      "bufferView": 4,
      "componentType": 5126,
      "count": 336,
      "type": "VEC4"
    },
    {
      "bufferView": 5,
      "componentType": 5123,
      "count": 504,
      "type": "SCALAR"
    },
    {
      "bufferView": 6,
      "componentType": 5126,
      "count": 7,
      "type": "MAT4"
    },
    {
      "bufferView": 7,
      "componentType": 5126,
      "count": 129,
      "type": "SCALAR",
      "min": [
        0.0
      ],
      "max": [
        11.11111111111111
      ]
    },
    {
      "bufferView": 8,
      "componentType": 5126,
      "count": 129,
      "type": "VEC4"
    },
    {
      "bufferView": 9,
      "componentType": 5126,
      "count": 129,
      "type": "VEC4"
    },
    {
      "bufferView": 10,
      "componentType": 5126,
      "count": 129,
      "type": "VEC4"
    },
    {
      "bufferView": 11,
      "componentType": 5126,
      "count": 129,
      "type": "VEC4"
    },
    {
      "bufferView": 12,
      "componentType": 5126,
      "count": 129,
      "type": "VEC4"
    },
    {
      "bufferView": 13,
      "componentType": 5126,
      "count": 129,
      "type": "VEC4"
    }
  ],
  "bufferViews": [
    {
      "buffer": 0,
      "byteOffset": 0,
      "byteLength": 4032
    },
    {
      "buffer": 0,
      "byteOffset": 4032,
      "byteLength": 4032
    },
    {
      "buffer": 0,
      "byteOffset": 8064,
      "byteLength": 2688
    },
    {
      "buffer": 0,
      "byteOffset": 10752,
      "byteLength": 2688
    },
    {
      "buffer": 0,
      "byteOffset": 13440,
      "byteLength": 5376
    },
    {
      "buffer": 0,
      "byteOffset": 18816,
      "byteLength": 1008
    },
    {
      "buffer": 0,
      "byteOffset": 19824,
      "byteLength": 448
    },
    {
      "buffer": 0,
      "byteOffset": 20272,
      "byteLength": 516
    },
    {
      "buffer": 0,
      "byteOffset": 20788,
      "byteLength": 2064
    },
    {
      "buffer": 0,
      "byteOffset": 22852,
      "byteLength": 2064
    },
    {
      "buffer": 0,
      "byteOffset": 24916,
      "byteLength": 2064
    },
    {
      "buffer": 0,
      "byteOffset": 26980,
      "byteLength": 2064
    },
    {
      "buffer": 0,
      "byteOffset": 29044,
      "byteLength": 2064
    },
    {
      "buffer": 0,
      "byteOffset": 31108,
      "byteLength": 2064
    }
  ],
  "buffers": [
    {
      "byteLength": 33172,
      "uri": "data:application/octet-stream;base64,"
    }
  ],
  "animations": [
    {
      "name": "repos",
      "samplers": [
        {
          "input": 7,
          "interpolation": "LINEAR",
          "output": 8
        },
        {
          "input": 7,
          "interpolation": "LINEAR",
          "output": 9
        },
        {
          "input": 7,
          "interpolation": "LINEAR",
          "output": 10
        },
        {
          "input": 7,
          "interpolation": "LINEAR",
          "output": 11
        },
        {
          "input": 7,
          "interpolation": "LINEAR",
          "output": 12
        },
        {
          "input": 7,
          "interpolation": "LINEAR",
          "output": 13
        }
      ],
      "channels": [
        {
          "sampler": 0,
          "target": {
            "node": 2,
            "path": "rotation"
          }
        },
        {
          "sampler": 1,
          "target": {
            "node": 3,
            "path": "rotation"
          }
        },
        {
          "sampler": 2,
          "target": {
            "node": 4,
            "path": "rotation"
          }
        },
        {
          "sampler": 3,
          "target": {
            "node": 5,
            "path": "rotation"
          }
        },
        {
          "sampler": 4,
          "target": {
            "node": 6,
            "path": "rotation"
          }
        },
        {
          "sampler": 5,
          "target": {
            "node": 7,
            "path": "rotation"
          }
        }
      ]
    }
  ]
}