{
  "asset": {
    "version": "2.0",
    "generator": "Evolve tools/heros/construire.py"
  },
  "scene": 0,
  "scenes": [
    {
      "nodes": [
        0
      ]
    }
  ],
  "nodes": [
    {
      "name": "heros",
      "mesh": 0,
      "skin": 0,
      "children": [
        1
      ]
    },
    {
      "name": "bassin",
      "translation": [
        0.0,
        -0.15,
        0.0
      ],
      "children": [
        2,
        6,
        7
      ]
    },
    {
      "name": "torse",
      "translation": [
        0.0,
        0.0,
        0.0
      ],
      "children": [
        3,
        4,
        5
      ]
    },
    {
      "name": "tete",
      "translation": [
        0.0,
        0.6,
        0.0
      ]
    },
    {
      "name": "brasG",
      "translation": [
        0.3,
        0.6,
        0.0
      ]
    },
    {
      "name": "brasD",
      "translation": [
        -0.3,
        0.6,
        0.0
      ]
    },
    {
      "name": "jambeG",
      "translation": [
        0.1125,
        0.0,
        0.0
      ]
    },
    {
      "name": "jambeD",
      "translation": [
        -0.1125,
        0.0,
        0.0
      ]
    }
  ],
  "meshes": [
    {
      "name": "heros",
      "primitives": [
        {
          "attributes": {
            "POSITION": 0,
            "NORMAL": 1,
            "TEXCOORD_0": 2,
            "JOINTS_0": 3,
            "WEIGHTS_0": 4
          },
          "indices": 5,
          "mode": 4
        }
      ]
    }
  ],
  "skins": [
    {
      "name": "squelette",
      "joints": [
        1,
        2,
        3,
        4,
        5,
        6,
        7
      ],
      "inverseBindMatrices": 6
    }
  ],
  "accessors": [
    {
      "bufferView": 0,
      "componentType": 5126,
      "count": 144,
      "type": "VEC3",
      "min": [
        -0.375,
        -0.9,
        -0.225
      ],
      "max": [
        0.375,
        0.9,
        0.225
      ]
    },
    {
      "bufferView": 1,
      "componentType": 5126,
      "count": 144,
      "type": "VEC3"
    },
    {
      "bufferView": 2,
      "componentType": 5126,
      "count": 144,
      "type": "VEC2"
    },
    {
      "bufferView": 3,
      "componentType": 5123,
      "count": 144,
      "type": "VEC4"
    },
    {
      "bufferView": 4,
      "componentType": 5126,
      "count": 144,
      "type": "VEC4"
    },
    {
      "bufferView": 5,
      "componentType": 5123,
      "count": 216,
      "type": "SCALAR"
    },
    {
      "bufferView": 6,
      "componentType": 5126,
      "count": 7,
      "type": "MAT4"
    },
    {
      "bufferView": 7,
      "componentType": 5126,
      "count": 5,
      "type": "SCALAR",
      "min": [
        0.0
      ],
      "max": [
        1.0
      ]
    },
    {
      "bufferView": 8,
      "componentType": 5126,
      "count": 5,
      "type": "VEC4"
    },
    {
      "bufferView": 9,
      "componentType": 5126,
      "count": 5,
      "type": "VEC4"
    },
    {
      "bufferView": 10,
      "componentType": 5126,
      "count": 5,
      "type": "VEC4"
    },
    {
      "bufferView": 11,
      "componentType": 5126,
      "count": 5,
      "type": "VEC4"
    },
    {
      "bufferView": 12,
      "componentType": 5126,
      "count": 5,
      "type": "SCALAR",
      "min": [
        0.0
      ],
      "max": [
        2.0
      ]
    },
    {
      "bufferView": 13,
      "componentType": 5126,
      "count": 5,
      "type": "VEC4"
    },
    {
      "bufferView": 14,
      "componentType": 5126,
      "count": 5,
      "type": "VEC4"
    },
    {
      "bufferView": 15,
      "componentType": 5126,
      "count": 5,
      "type": "VEC4"
    }
  ],
  "bufferViews": [
    {
      "buffer": 0,
      "byteOffset": 0,
      "byteLength": 1728
    },
    {
      "buffer": 0,
      "byteOffset": 1728,
      "byteLength": 1728
    },
    {
      "buffer": 0,
      "byteOffset": 3456,
      "byteLength": 1152
    },
    {
      "buffer": 0,
      "byteOffset": 4608,
      "byteLength": 1152
    },
    {
      "buffer": 0,
      "byteOffset": 5760,
      "byteLength": 2304
    },
    {
      "buffer": 0,
      "byteOffset": 8064,
      "byteLength": 432
    },
    {
      "buffer": 0,
      "byteOffset": 8496,
      "byteLength": 448
    },
    {
      "buffer": 0,
      "byteOffset": 8944,
      "byteLength": 20
    },
    {
      "buffer": 0,
      "byteOffset": 8964,
      "byteLength": 80
    },
    {
      "buffer": 0,
      "byteOffset": 9044,
      "byteLength": 80
    },
    {
      "buffer": 0,
      "byteOffset": 9124,
      "byteLength": 80
    },
    {
      "buffer": 0,
      "byteOffset": 9204,
      "byteLength": 80
    },
    {
      "buffer": 0,
      "byteOffset": 9284,
      "byteLength": 20
    },
    {
      "buffer": 0,
      "byteOffset": 9304,
      "byteLength": 80
    },
    {
      "buffer": 0,
      "byteOffset": 9384,
      "byteLength": 80
    },
    {
      "buffer": 0,
      "byteOffset": 9464,
      "byteLength": 80
    }
  ],
  "buffers": [
    {
      "byteLength": 9544,
      "uri": "data:application/octet-stream;base64,"
    }
  ],
  "animations": [
    {
      "name": "marche",
      "samplers": [
        {
          "input": 7,
          "interpolation": "LINEAR",
          "output": 8
        },
        {
          "input": 7,
          "interpolation": "LINEAR",
          "output": 9
        },
        {
          "input": 7,
          "interpolation": "LINEAR",
          "output": 10
        },
        {
          "input": 7,
          "interpolation": "LINEAR",
          "output": 11
        }
      ],
      "channels": [
        {
          "sampler": 0,
          "target": {
            "node": 6,
            "path": "rotation"
          }
        },
        {
          "sampler": 1,
          "target": {
            "node": 7,
            "path": "rotation"
          }
        },
        {
          "sampler": 2,
          "target": {
            "node": 4,
            "path": "rotation"
          }
        },
        {
          "sampler": 3,
          "target": {
            "node": 5,
            "path": "rotation"
          }
        }
      ]
    },
    {
      "name": "repos",
      "samplers": [
        {
          "input": 12,
          "interpolation": "LINEAR",
          "output": 13
        },
        {
          "input": 12,
          "interpolation": "LINEAR",
          "output": 14
        },
        {
          "input": 12,
          "interpolation": "LINEAR",
          "output": 15
        }
      ],
      "channels": [
        {
          "sampler": 0,
          "target": {
            "node": 4,
            "path": "rotation"
          }
        },
        {
          "sampler": 1,
          "target": {
            "node": 5,
            "path": "rotation"
          }
        },
        {
          "sampler": 2,
          "target": {
            "node": 2,
            "path": "rotation"
          }
        }
      ]
    }
  ]
}